<?xml version="1.0" encoding="UTF-8"?>
<svg width="48px" height="48px" viewBox="0 0 48 48" version="1.1" xmlns="http://www.w3.org/2000/svg" xmlns:xlink="http://www.w3.org/1999/xlink">
    <!-- Generator: Sketch 53.2 (72643) - https://sketchapp.com -->
    <title>Circle_Open</title>
    <desc>Created with Sketch.</desc>
    <g id="Circle_Open" stroke="none" stroke-width="1" fill="none" fill-rule="evenodd">
        <g id="Group-39" transform="translate(6.000000, 6.000000)">
            <circle id="Oval" fill="#589DD5" cx="18" cy="18" r="18"></circle>
            <g id="Group-35" transform="translate(20.500000, 18.500000) scale(-1, 1) translate(-20.500000, -18.500000) translate(13.000000, 6.000000)" fill="#FFFFFF" fill-rule="nonzero" opacity="0.796389">
                <g id="Group-34">
                    <path d="M9.61014307,12.1505684 L5.01556313,9.78189605 C4.92051416,9.73158908 4.80100494,9.74145544 4.71718462,9.8067914 C4.63111856,9.87011967 4.59664358,9.9768714 4.62577737,10.0763381 L5.05374053,11.4727723 L0.955527444,11.4736901 C0.427356205,11.4736328 -9.05941988e-14,11.8783257 -9.05941988e-14,12.3763475 C-9.05941988e-14,12.8751149 0.428327331,13.27889 0.955466749,13.27889 L5.05367983,13.278087 L4.62644502,14.6734887 C4.59585454,14.7722097 4.63105787,14.8797645 4.71712392,14.9431501 C4.80197607,15.0083713 4.92045346,15.0182377 5.01428853,14.9687912 L9.61008237,12.5982258 C9.69790859,12.5534257 9.75101706,12.4661199 9.74998523,12.3745118 C9.75004593,12.2810109 9.69620912,12.1954833 9.61014307,12.1505684 Z" id="Path" transform="translate(4.875000, 12.375000) scale(-1, 1) translate(-4.875000, -12.375000) "></path>
                    <path d="M14.250143,-5.32907052e-15 C13.8355627,-5.32907052e-15 13.5,0.409915577 13.5,0.916528589 L13.5,23.8332384 C13.5,24.3400844 13.8355627,24.75 14.250143,24.75 C14.6645326,24.75 15,24.3400844 15,23.8332384 L15,0.916528589 C15,0.409915577 14.6645326,-5.32907052e-15 14.250143,-5.32907052e-15 Z" id="Path" transform="translate(14.250000, 12.375000) scale(-1, 1) translate(-14.250000, -12.375000) "></path>
                    <path d="M11.250143,3 C10.8355627,3 10.5,3.29812042 10.5,3.66656625 L10.5,20.3332643 C10.5,20.7018796 10.8355627,21 11.250143,21 C11.6645326,21 12,20.7018796 12,20.3332643 L12,3.66656625 C12,3.29812042 11.6645326,3 11.250143,3 Z" id="Path" transform="translate(11.250000, 12.000000) scale(-1, 1) translate(-11.250000, -12.000000) "></path>
                </g>
            </g>
        </g>
    </g>
</svg>