<?xml version="1.0" encoding="UTF-8"?>
<svg width="1338px" height="469px" viewBox="0 0 1338 469" version="1.1" xmlns="http://www.w3.org/2000/svg" xmlns:xlink="http://www.w3.org/1999/xlink">
    <!-- Generator: Sketch 53.2 (72643) - https://sketchapp.com -->
    <title>Page 1</title>
    <desc>Created with Sketch.</desc>
    <defs>
        <filter x="-0.2%" y="-0.5%" width="100.4%" height="101.1%" filterUnits="objectBoundingBox" id="filter-1">
            <feOffset dx="0" dy="1" in="SourceAlpha" result="shadowOffsetOuter1"></feOffset>
            <feColorMatrix values="0 0 0 0 0.19851372   0 0 0 0 1   0 0 0 0 0.988702827  0 0 0 0.5 0" type="matrix" in="shadowOffsetOuter1" result="shadowMatrixOuter1"></feColorMatrix>
            <feMerge>
                <feMergeNode in="shadowMatrixOuter1"></feMergeNode>
                <feMergeNode in="SourceGraphic"></feMergeNode>
            </feMerge>
        </filter>
        <polygon id="path-2" points="0 0.066836678 0 467.718728 1373.34991 467.718728 1373.34991 0.066836678"></polygon>
    </defs>
    <g id="Page-1" stroke="none" stroke-width="1" fill="none" fill-rule="evenodd" opacity="0.912551153">
        <g id="Login" transform="translate(-102.000000, -93.000000)">
            <g id="Page-1" transform="translate(789.000000, 327.000000) scale(-1, 1) translate(-789.000000, -327.000000) translate(102.000000, 93.000000)">
                <g id="Group-3" filter="url(#filter-1)">
                    <mask id="mask-3" fill="white">
                        <use xlink:href="#path-2"></use>
                    </mask>
                    <g id="Clip-2"></g>
                    <path d="M1328.52736,281.521467 L1367.65077,282.499376 C1367.66501,282.688773 1367.66857,282.874306 1367.71484,283.052107 L1247.98106,332.844305 L1328.52736,281.521467 Z M1172.82042,288.981406 C1173.17993,289.348606 1173.5964,289.653961 1174.11254,289.789244 C1175.24093,290.067543 1176.35864,289.576656 1177.02073,288.641264 L1241.82298,333.36998 C1241.71263,333.59803 1241.58093,333.806753 1241.52753,334.06959 C1241.50618,334.173952 1241.53465,334.274449 1241.52397,334.386541 L1123.74797,334.67257 L1172.82042,288.981406 Z M1121.50543,335.461082 L1121.96818,335.461082 L1112.73817,344.053541 L1121.50543,335.461082 Z M1068.54592,355.958522 L1090.0209,362.494666 C1089.95682,362.927574 1089.9675,363.348887 1090.06005,363.750873 L976.922187,409.449768 L1068.54592,355.958522 Z M890.488332,462.786403 C890.16085,462.29165 889.694545,461.924451 889.139249,461.704132 L906.385441,390.792188 C907.698928,391.039564 908.937664,390.258783 909.460923,388.963923 L969.382985,411.007465 C969.379425,411.030656 969.368747,411.042252 969.365187,411.061578 C969.219244,411.753459 969.33671,412.422148 969.593001,413.025127 L890.488332,462.786403 Z M783.896545,394.63425 L904.043234,388.256582 C904.210534,389.346583 904.92957,390.243322 905.919135,390.633713 L888.676503,461.549522 C887.601508,461.344663 886.55855,461.808494 885.921384,462.693637 L783.650933,395.677869 C783.729244,395.492337 783.839591,395.326131 783.885866,395.121272 C783.917902,394.955066 783.889425,394.800456 783.896545,394.63425 L783.896545,394.63425 Z M661.973622,456.536288 C661.710213,456.099514 661.329337,455.774833 660.895068,455.523591 L704.969855,332.651042 C704.991213,332.654908 705.009011,332.678099 705.037488,332.681964 C706.051969,332.940936 707.034415,332.53122 707.714296,331.777495 L778.681752,392.748006 C778.510892,393.045631 778.35427,393.358717 778.279519,393.71432 C778.154933,394.305704 778.240363,394.866165 778.407664,395.403436 L661.973622,456.536288 Z M556.531581,399.311207 L629.367819,318.481022 C629.691741,318.759321 630.061938,318.975775 630.489089,319.084002 C630.795213,319.161307 631.097778,319.138116 631.393223,319.114924 L658.627612,455.330329 C658.033161,455.558379 657.520581,455.960365 657.171741,456.540153 L557.001446,402.310644 C557.044161,402.190821 557.118912,402.090325 557.14383,401.962771 C557.353845,400.980997 557.076197,400.03401 556.531581,399.311207 L556.531581,399.311207 Z M497.065146,416.816941 C497.022431,416.805345 496.986835,416.820806 496.947679,416.813076 L505.330503,282.422071 C505.561876,282.410475 505.78257,282.367957 506.003265,282.294518 L552.904363,398.576809 C552.24228,398.998122 551.72614,399.682272 551.541042,400.559684 C551.444933,401.019649 551.462731,401.471884 551.551721,401.908658 L499.051394,418.765029 C498.720353,417.829637 498.029793,417.056587 497.065146,416.816941 L497.065146,416.816941 Z M391.722773,328.41859 L502.671493,280.817991 C503.048809,281.587176 503.693094,282.190156 504.529596,282.402745 C504.572311,282.40661 504.604348,282.395014 504.643503,282.40661 L496.264239,416.789884 C495.552322,416.836267 494.915156,417.153218 494.416814,417.690488 L391.413089,330.78026 C391.562591,330.509692 391.708534,330.239124 391.776166,329.914443 C391.886513,329.396499 391.836679,328.897881 391.722773,328.41859 L391.722773,328.41859 Z M260.473736,292.158645 L357.212591,206.724943 C357.575669,207.111469 357.99926,207.428419 358.529638,207.559838 C358.882037,207.652604 359.237995,207.644874 359.579716,207.594625 L387.956731,326.350679 C387.223456,326.659899 386.639684,327.270609 386.340679,328.105504 L260.858172,294.187903 C260.936482,293.465101 260.815456,292.746164 260.473736,292.158645 L260.473736,292.158645 Z M147.976596,336.914417 C147.916083,336.898956 147.85557,336.918282 147.795058,336.906687 L153.579384,247.73915 C154.583187,247.708228 155.476643,247.13617 155.971425,246.196914 L255.326576,292.916235 C255.308778,292.99354 255.258944,293.047653 255.244705,293.124958 C255.137918,293.631307 255.180633,294.126059 255.294539,294.59762 L149.848938,338.530093 C149.475182,337.749312 148.827337,337.127006 147.976596,336.914417 L147.976596,336.914417 Z M55.7334979,265.055486 L150.799348,245.555282 C151.091234,246.591169 151.824508,247.456986 152.867467,247.715958 C152.92798,247.731419 152.984933,247.712093 153.045446,247.723689 L147.25756,336.88736 C146.470892,336.914417 145.762534,337.266155 145.242835,337.876865 L55.3704202,266.829638 C55.5056845,266.574531 55.6480679,266.315559 55.7121404,266.014069 C55.7797725,265.689388 55.758415,265.372437 55.7334979,265.055486 L55.7334979,265.055486 Z M245.954187,74.8502185 C246.028938,74.8695448 246.10013,74.8463533 246.174881,74.857949 L242.06712,137.235413 C240.771431,137.250874 239.593208,138.163074 239.290643,139.593217 C239.208773,139.972012 239.219451,140.350807 239.262166,140.706411 L142.128197,166.224815 C142.060565,166.008361 142.010731,165.784176 141.903944,165.594779 L244.654938,74.0423805 C245.018016,74.4095796 245.434488,74.7187999 245.954187,74.8502185 L245.954187,74.8502185 Z M370.219317,19.1441827 L316.982156,150.002346 C316.921643,149.979154 316.875368,149.932771 316.814855,149.91731 C315.953436,149.700856 315.113374,149.959828 314.45841,150.500963 L248.737783,73.8375221 C249.040348,73.4625925 249.293078,73.0335493 249.403425,72.5117401 C249.513773,71.9899308 249.460379,71.4874478 249.339353,71.0042911 L369.194156,18.0116634 C369.432648,18.4832243 369.788607,18.8581539 370.219317,19.1441827 L370.219317,19.1441827 Z M519.504773,5.15582966 L436.221151,101.106887 C435.911467,100.85951 435.555508,100.670113 435.156835,100.569616 C434.380845,100.372489 433.601296,100.54256 432.978368,100.967738 L373.643638,18.707409 C374.031633,18.2976921 374.351995,17.8145354 374.4837,17.2038253 C374.522855,17.0221584 374.48726,16.8404915 374.497938,16.6626898 L518.885405,3.84937392 C518.985073,4.34412639 519.209327,4.77316954 519.504773,5.15582966 L519.504773,5.15582966 Z M606.501042,131.294518 L508.53413,111.546937 C508.637358,110.074275 507.804415,108.70211 506.458892,108.31172 L521.523058,6.24969644 C522.067674,6.28061847 522.590933,6.17625662 523.053679,5.90182361 L607.269912,129.964871 C606.924633,130.328204 606.650545,130.764978 606.501042,131.294518 L606.501042,131.294518 Z M734.080146,171.848759 L683.007213,178.725046 L611.865337,133.38562 L734.094384,171.357872 C734.073026,171.524078 734.080146,171.686419 734.080146,171.848759 L734.080146,171.848759 Z M832.45641,216.476978 L753.526161,213.643747 L738.355208,174.515784 C738.789477,174.237486 739.124078,173.820039 739.376809,173.329151 L832.545399,216.001552 C832.524042,216.067261 832.481327,216.11751 832.467089,216.190949 C832.445731,216.287581 832.470648,216.380347 832.45641,216.476978 L832.45641,216.476978 Z M914.084824,182.667604 L901.676109,206.817709 L838.030721,216.148432 C838.012923,216.086588 837.984446,216.036339 837.966648,215.974495 L913.248322,181.589199 C913.458337,182.006646 913.721747,182.389306 914.084824,182.667604 L914.084824,182.667604 Z M947.075063,201.49139 C947.35983,199.852522 946.423659,198.244577 944.914394,197.865782 C943.778887,197.579753 942.654058,198.078371 941.991975,199.021493 L918.32785,181.774731 L918.206824,181.678099 C918.228182,181.639447 918.235301,181.593064 918.256659,181.558277 L1019.44855,224.176563 L947.075063,201.49139 Z M1129.77079,210.887821 L1046.43021,254.835756 L1027.6534,228.602279 C1028.03072,228.200293 1028.34396,227.724866 1028.4721,227.121887 C1028.52906,226.847454 1028.49702,226.584617 1028.4899,226.314049 L1129.68536,210.63658 C1129.70672,210.725481 1129.74587,210.802786 1129.77079,210.887821 L1129.77079,210.887821 Z M1200.04768,257.027354 L1171.3859,280.068132 L1134.11348,212.372079 C1134.35197,212.186547 1134.59047,211.977823 1134.76133,211.714986 L1199.98717,254.155471 C1199.89462,254.364195 1199.7736,254.545862 1199.72376,254.781642 C1199.55646,255.58175 1199.69885,256.370261 1200.04768,257.027354 L1200.04768,257.027354 Z M1343.59509,254.630897 L1322.44047,267.973753 L1209.0036,255.782743 L1343.31388,253.722563 C1343.3566,254.047244 1343.46694,254.341003 1343.59509,254.630897 L1343.59509,254.630897 Z M1367.93553,280.984197 L1347.44656,271.781028 C1347.4786,271.672801 1347.54979,271.587765 1347.57471,271.471807 C1347.93066,269.794287 1346.96602,268.116767 1345.4176,267.730242 C1345.33217,267.70705 1345.23962,267.737972 1345.15419,267.722511 L1346.04408,256.335474 C1346.74532,256.362531 1347.39317,256.134481 1347.91287,255.674516 L1368.44455,280.176359 C1368.23454,280.416004 1368.0708,280.678842 1367.93553,280.984197 L1367.93553,280.984197 Z M1162.09538,295.668295 L1171.7205,289.139882 L1122.8118,334.676435 L1122.30278,334.676435 L1162.09538,295.668295 Z M1342.49874,272.619788 C1342.88673,273.191845 1343.43135,273.64408 1344.12547,273.814151 C1345.45319,274.150428 1346.7382,273.385108 1347.30774,272.101844 L1367.80027,281.305013 C1367.76467,281.41324 1367.69704,281.498275 1367.67212,281.610368 C1367.64721,281.741786 1367.67568,281.861609 1367.66501,281.989163 L1329.29267,281.03831 L1342.49874,272.619788 Z M1312.55194,280.620863 L1316.21832,277.68327 L1342.04667,271.618687 C1342.08582,271.761701 1342.13566,271.889255 1342.18549,272.016808 L1328.08242,281.003523 L1312.55194,280.620863 Z M1311.94325,281.11175 L1327.32066,281.490545 L1249.55084,331.046962 L1311.94325,281.11175 Z M1177.57246,286.97534 L1217.81714,285.054309 L1242.69508,332.233595 C1242.45659,332.415262 1242.24657,332.623986 1242.06503,332.871362 L1177.27346,288.142646 C1177.37668,287.914596 1177.50839,287.705873 1177.56178,287.446901 C1177.59738,287.288425 1177.56178,287.13768 1177.57246,286.97534 L1177.57246,286.97534 Z M1106.28464,334.718953 C1106.24549,334.367215 1106.13158,334.042534 1105.9892,333.729448 L1158.4824,298.122731 L1121.18507,334.680301 L1106.28464,334.718953 Z M1094.05391,360.26828 L1102.52572,338.01988 C1102.62539,338.058532 1102.7037,338.131972 1102.81049,338.155164 C1104.35535,338.545554 1105.90377,337.494205 1106.25973,335.82055 C1106.28108,335.712323 1106.25261,335.604096 1106.26685,335.499734 L1120.38772,335.464947 L1094.66972,360.677997 C1094.48462,360.507926 1094.2746,360.384237 1094.05391,360.26828 L1094.05391,360.26828 Z M1081.54196,348.371029 L1090.8218,360.863529 C1090.55483,361.161153 1090.34482,361.505161 1090.19888,361.903282 L1069.27563,355.529479 L1081.54196,348.371029 Z M1000.86752,334.695762 C1000.8782,334.633918 1000.86396,334.575939 1000.87108,334.514095 L1071.72107,335.151862 L1081.06142,347.725532 L1068.23623,355.212528 L1000.86752,334.695762 Z M909.48584,386.575196 L957.219881,358.52505 L971.05955,408.939554 C970.401026,409.244909 969.881327,409.801506 969.582322,410.543634 L909.6567,388.496227 C909.66026,388.476901 909.674498,388.465305 909.678058,388.445979 C909.816881,387.788886 909.706534,387.151119 909.48584,386.575196 L909.48584,386.575196 Z M783.116995,392.291906 L819.762928,344.072867 L904.182058,386.78392 C904.150021,386.876686 904.093068,386.942395 904.07527,387.039027 C904.039674,387.205233 904.07171,387.363708 904.061032,387.529914 L783.914342,393.903717 C783.818234,393.281411 783.515669,392.740276 783.116995,392.291906 L783.116995,392.291906 Z M708.497405,329.898982 L787.449011,329.060222 C787.570037,330.351216 788.39942,331.476005 789.627477,331.785226 L781.287368,391.364246 C780.425949,391.294671 779.628602,391.638679 779.051949,392.280311 L708.080933,331.309799 C708.255353,331.01604 708.411975,330.70682 708.486726,330.343486 C708.518762,330.192741 708.486726,330.049727 708.497405,329.898982 L708.497405,329.898982 Z M389.622617,326.165147 C389.465995,326.126494 389.309374,326.165147 389.152752,326.153551 L380.965705,200.068976 L464.797503,181.651043 C465.092949,182.663739 465.819104,183.506364 466.844265,183.761471 C467.349726,183.889024 467.840949,183.815585 468.307254,183.66484 L503.828358,276.635786 C503.12712,277.049368 502.568265,277.741249 502.376047,278.653449 C502.2657,279.167527 502.315534,279.67001 502.433001,280.149302 L391.480721,327.746035 C391.103405,326.980715 390.462679,326.37387 389.622617,326.165147 L389.622617,326.165147 Z M361.978876,205.221359 C362.050068,204.888948 362.02871,204.560401 362.003793,204.23572 L380.225311,200.235182 L388.337607,325.148585 L360.191964,207.378171 C361.053384,207.014837 361.754622,206.268843 361.978876,205.221359 L361.978876,205.221359 Z M259.530446,291.196197 L306.937006,176.286071 L356.514912,203.47813 C356.475757,203.594088 356.401006,203.686854 356.372529,203.814407 C356.19455,204.657032 356.351172,205.503523 356.746285,206.183808 L260.007431,291.613644 C259.857928,291.455169 259.708425,291.312154 259.530446,291.196197 L259.530446,291.196197 Z M155.665301,242.687263 L240.408353,142.8323 C240.710918,143.068081 241.059757,143.245882 241.444192,143.342514 C241.647089,143.392762 241.842866,143.354109 242.045762,143.36184 L257.369778,290.821267 C256.615146,291.026126 255.981539,291.555665 255.589985,292.297794 L156.231275,245.582338 C156.249073,245.508898 156.298907,245.45092 156.313146,245.373615 C156.526721,244.376379 156.234835,243.413931 155.665301,242.687263 L155.665301,242.687263 Z M239.938488,142.287299 L155.195436,242.142263 C154.892871,241.906482 154.544032,241.72868 154.159596,241.632049 C153.835674,241.550879 153.515311,241.56634 153.202068,241.601127 L140.252296,170.213757 C141.220503,169.908402 142.028529,169.100564 142.27414,167.960314 C142.352451,167.581519 142.345332,167.210455 142.302617,166.847121 L239.433026,141.328716 C239.550493,141.68432 239.714234,141.997405 239.938488,142.287299 L239.938488,142.287299 Z M371.034462,19.5461691 C371.176845,19.5770911 371.315669,19.5461691 371.458052,19.5577648 L376.163824,127.549087 L318.680078,151.517525 C318.441586,151.018907 318.082068,150.616921 317.626441,150.319296 L370.863602,19.4611335 C370.924115,19.4804597 370.970389,19.530708 371.034462,19.5461691 L371.034462,19.5461691 Z M431.753871,104.369161 L376.865063,127.259193 L372.177089,19.5770911 C372.547285,19.5075165 372.896125,19.3567716 373.216488,19.1403174 L432.547659,101.404511 C432.159664,101.814228 431.835741,102.297385 431.707596,102.908095 C431.600809,103.410578 431.643524,103.901465 431.753871,104.369161 L431.753871,104.369161 Z M622.889374,186.815022 L610.21013,135.047679 C610.708472,134.846686 611.15698,134.541331 611.484462,134.081366 L681.789835,178.887386 L622.889374,186.815022 Z M699.52013,190.189388 L677.27984,201.332914 L623.878938,190.850346 L623.063793,187.530093 L682.743804,179.494231 L699.52013,190.189388 Z M734.222529,172.803477 L700.345954,189.775806 L683.957622,179.335756 L734.140659,172.575427 C734.154897,172.656597 734.197612,172.730037 734.222529,172.803477 L734.222529,172.803477 Z M739.415964,213.141264 C739.334094,211.803886 738.50471,210.621119 737.241058,210.304168 C737.091555,210.265516 736.949172,210.304168 736.799669,210.292572 L737.059519,174.90231 C737.262415,174.894579 737.451073,174.867522 737.643291,174.813409 L752.689659,213.61669 L739.415964,213.141264 Z M757.997001,227.315149 L739.159674,214.613926 C739.237985,214.428394 739.348332,214.262188 739.394607,214.053464 C739.415964,213.956833 739.391047,213.860201 739.405285,213.759705 L752.93171,214.246727 L757.997001,227.315149 Z M833.855327,219.557585 L815.220897,265.882651 L759.11827,228.068874 L753.771773,214.277649 L832.442172,217.099284 C832.506244,218.135172 833.025944,219.039641 833.855327,219.557585 L833.855327,219.557585 Z M880.183332,248.666811 L837.788669,218.270456 C837.891897,218.046271 838.016482,217.841413 838.069876,217.594036 C838.12683,217.331199 838.094793,217.072227 838.087674,216.81712 L901.302353,207.544377 L880.183332,248.666811 Z M920.613104,204.715011 L924.222524,221.90766 L891.630959,256.872744 L880.727949,249.057201 L902.110379,207.428419 L920.613104,204.715011 Z M915.109985,183.177818 C915.444586,183.258988 915.772068,183.243527 916.09599,183.201009 L920.47428,204.061783 L902.484135,206.701752 L914.675716,182.961364 C914.825218,183.027073 914.946244,183.1353 915.109985,183.177818 L915.109985,183.177818 Z M941.450918,200.857488 L923.058539,185.682502 L941.821115,199.353904 C941.678731,199.620607 941.532788,199.887309 941.465156,200.20426 C941.418881,200.428445 941.450918,200.637169 941.450918,200.857488 L941.450918,200.857488 Z M1022.8622,225.838623 C1022.73405,226.569155 1022.85864,227.288093 1023.16832,227.902668 L998.02341,246.765106 L946.66927,202.573661 C946.761819,202.407455 946.825892,202.214192 946.897083,202.032525 L1022.8622,225.838623 Z M1041.36492,257.506646 L1027.92037,230.159976 L1045.8144,255.164302 L1041.36492,257.506646 Z M1100.55727,331.661537 L1100.41489,332.202673 L1062.80787,301.122168 L1041.67461,258.136682 L1046.22376,255.740225 L1100.55727,331.661537 Z M1105.51221,333.014376 C1105.22389,332.678099 1104.86793,332.419127 1104.45502,332.245191 L1132.06672,212.928675 C1132.63269,213.00598 1133.17731,212.905484 1133.66853,212.650377 L1170.96587,280.404409 L1105.51221,333.014376 Z M258.693944,290.782615 C258.491047,290.732366 258.29171,290.767154 258.092374,290.767154 L242.768358,143.29613 C243.462477,143.110598 244.067607,142.669959 244.46628,142.020597 L306.289161,175.930467 L258.868363,290.86765 C258.804291,290.848324 258.758016,290.798076 258.693944,290.782615 L258.693944,290.782615 Z M607.358902,134.491083 L584.068534,168.350705 L558.85955,149.851601 L606.668342,133.478386 C606.835643,133.864912 607.059897,134.205054 607.358902,134.491083 L607.358902,134.491083 Z M735.948928,174.728373 L729.31742,208.240123 L701.011596,190.200984 L734.446783,173.448974 C734.777824,174.040358 735.311762,174.480997 735.948928,174.728373 L735.948928,174.728373 Z M921.068731,203.972883 L916.669083,183.034803 C917.096234,182.876328 917.466431,182.621221 917.779674,182.273348 L940.603736,201.10873 L921.068731,203.972883 Z M1040.70996,257.854519 L1024.65623,266.319424 C1024.26467,265.654601 1023.64531,265.144387 1022.88,264.951124 C1022.8088,264.935663 1022.73761,264.95499 1022.66642,264.943394 L1025.59952,229.479692 C1025.97328,229.491287 1026.32567,229.425578 1026.66739,229.286429 L1040.70996,257.854519 Z M1099.7528,337.737716 L1101.15172,336.926013 C1101.42225,337.331865 1101.79601,337.648815 1102.23028,337.873 L1094.39919,358.43615 L1099.7528,337.737716 Z M1084.39319,346.705105 L1090.82892,359.796719 L1082.10082,348.046348 L1084.39319,346.705105 Z M1078.74413,335.217571 L1084.03723,345.990033 L1081.62028,347.40085 L1072.52553,335.159592 L1078.74413,335.217571 Z M1099.75636,334.75374 L1079.24959,334.572073 L1063.46995,302.471142 L1100.24759,332.859766 L1099.75636,334.75374 Z M1101.03069,333.512994 C1100.87407,333.787427 1100.72457,334.077321 1100.65338,334.413598 C1100.62846,334.533421 1100.65694,334.645513 1100.64626,334.765336 L1100.52167,334.761471 L1100.87763,333.385441 L1101.03069,333.512994 Z M1101.47208,332.933206 C1101.44717,332.960263 1101.41869,332.983454 1101.39377,333.010511 L1101.04849,332.724482 L1101.12324,332.450049 L1101.47208,332.933206 Z M1103.82853,332.063524 C1103.16289,331.970758 1102.51504,332.094446 1101.97398,332.450049 L1101.3475,331.568771 L1126.01543,236.193637 L1103.82853,332.063524 Z M1100.35437,335.410834 L1100.62846,335.414699 C1100.65338,335.692997 1100.72457,335.940373 1100.81356,336.19548 L1100.03401,336.65158 L1100.35437,335.410834 Z M1084.67796,345.615103 L1079.57351,335.229167 L1099.58906,335.403103 L1099.12988,337.177254 L1084.67796,345.615103 Z M1091.82917,360.160053 L1085.03036,346.33404 L1098.84867,338.267256 L1093.23164,359.978386 C1092.74042,359.897216 1092.27055,359.978386 1091.82917,360.160053 L1091.82917,360.160053 Z M1024.2362,270.157621 L1024.29315,270.099642 L1062.08171,301.323161 L1078.42377,334.568208 L1072.04143,334.506364 L1024.2362,270.157621 Z M1000.25171,332.221999 L1021.56295,271.027303 C1021.57363,271.027303 1021.57719,271.035034 1021.58431,271.035034 C1022.37097,271.232162 1023.15052,271.05436 1023.78057,270.617586 L1071.23696,334.498634 L1000.88888,333.864732 C1000.83192,333.246291 1000.60767,332.69356 1000.25171,332.221999 L1000.25171,332.221999 Z M997.322172,337.165659 C997.354208,337.173389 997.375565,337.196581 997.411161,337.208176 C997.521508,337.235233 997.628296,337.200446 997.738643,337.215907 L987.326855,367.109779 L997.322172,337.165659 Z M995.70256,335.913316 C995.987327,336.365551 996.396679,336.697963 996.870104,336.941474 L974.736602,403.276957 L972.835783,408.73083 C972.828664,408.726965 972.821545,408.719235 972.814425,408.719235 C972.419311,408.622603 972.027757,408.618738 971.65756,408.692178 L957.789415,358.188773 L995.70256,335.913316 Z M947.398985,320.336344 L995.246933,333.787427 C995.18642,334.332428 995.264731,334.850372 995.44627,335.333528 L957.618555,357.562602 L947.398985,320.336344 Z M822.83485,340.033677 L894.617451,381.132919 L820.211436,343.481483 L822.83485,340.033677 Z M794.877866,330.668167 L795.589783,327.309262 C796.693254,327.487064 797.75757,326.980715 798.3627,326.025998 L822.247519,339.701265 L819.606306,343.176128 L794.877866,330.668167 Z M781.942332,391.476338 L794.721244,331.3987 L819.157798,343.767512 L782.636451,391.820346 C782.426436,391.677331 782.191503,391.565239 781.942332,391.476338 L781.942332,391.476338 Z M792.69228,330.370543 L794.294094,331.186111 L782.195063,388.082645 L790.072425,331.800687 C791.143861,331.877992 792.136985,331.340721 792.69228,330.370543 L792.69228,330.370543 Z M788.185845,325.024897 L788.705545,326.14582 C788.107534,326.567133 787.644788,327.224226 787.473928,328.039795 C787.441892,328.194405 787.473928,328.337419 787.463249,328.488164 L717.567228,329.230293 L788.185845,325.024897 Z M470.293503,181.422993 C470.300622,181.372744 470.289944,181.322496 470.297063,181.272248 L569.032845,186.787965 C569.096918,187.533959 569.406602,188.194917 569.890705,188.708996 L506.676026,276.732418 C506.412617,276.558481 506.142089,276.396141 505.825285,276.31497 C505.316265,276.187417 504.828602,276.260857 504.362296,276.411602 L468.841192,183.43679 C469.542431,183.030938 470.097726,182.331327 470.293503,181.422993 L470.293503,181.422993 Z M379.520513,177.824441 L385.47926,169.842693 L464.672918,180.630616 C464.669358,180.754304 464.65512,180.877992 464.665798,180.997815 L380.92299,199.396422 L379.520513,177.824441 Z M361.195767,202.372668 L378.829954,178.748237 L380.182596,199.562628 L361.872089,203.586357 C361.733265,203.122527 361.505451,202.72054 361.195767,202.372668 L361.195767,202.372668 Z M315.344747,155.916184 C315.40526,155.939375 315.455094,155.985758 315.519166,156.001219 C316.391265,156.221539 317.238446,155.950971 317.896969,155.39824 L357.116482,202.41132 C357.006135,202.538873 356.888669,202.650966 356.799679,202.797845 L307.221773,175.605786 L315.344747,155.916184 Z M377.804793,165.192793 C377.327809,165.285559 376.914897,165.5368 376.537581,165.857616 C376.149586,165.165736 375.519539,164.643926 374.736431,164.446799 C373.266322,164.075734 371.835368,165.022721 371.383301,166.557227 L318.975524,153.411499 C319.032477,152.994052 319.014679,152.5882 318.92213,152.201675 L376.195861,128.318273 L377.804793,165.192793 Z M432.401716,105.64856 L380.32142,166.132049 C379.947664,165.714602 379.502716,165.366729 378.940301,165.22758 C378.797918,165.192793 378.662653,165.22758 378.52027,165.215984 L376.900659,128.024513 L431.995923,105.049445 C432.10271,105.27363 432.245094,105.463028 432.401716,105.64856 L432.401716,105.64856 Z M502.984736,112.126725 L448.861239,136.51261 L435.936384,106.301788 C436.605586,105.88434 437.125285,105.19246 437.310384,104.315047 C437.321063,104.268664 437.306824,104.222281 437.317503,104.175898 L502.902866,111.268639 C502.895747,111.562398 502.913545,111.852292 502.984736,112.126725 L502.984736,112.126725 Z M543.798944,154.157493 L507.918322,113.363606 L557.247058,149.550111 L543.798944,154.157493 Z M583.666301,168.934358 L573.379099,183.89289 C573.11213,183.711223 572.834482,183.545017 572.51056,183.463847 C571.631342,183.243527 570.777042,183.521825 570.118519,184.082287 L544.375596,154.814586 L558.037285,150.133764 L583.666301,168.934358 Z M614.040244,188.009385 C613.787513,186.903922 613.015083,185.980127 611.92585,185.705694 C611.737192,185.659311 611.555653,185.697963 611.374115,185.690233 L609.548047,135.244807 C609.601441,135.237077 609.654835,135.260268 609.708228,135.248672 L622.351876,186.892327 L614.040244,188.009385 Z M614.093638,188.929315 C614.097197,188.863606 614.097197,188.801762 614.097197,188.736053 L622.529855,187.603533 L623.295166,190.738254 L614.093638,188.929315 Z M630.855726,221.610035 C630.73114,221.660283 630.602995,221.691205 630.489089,221.76078 L612.936773,191.256198 C613.427995,190.873538 613.805311,190.324672 613.993969,189.652118 L623.483824,191.519035 L630.855726,221.610035 Z M634.294285,222.873973 C633.902731,222.174362 633.272684,221.640957 632.482456,221.439964 C632.10514,221.347198 631.724265,221.343333 631.364747,221.405177 L624.071156,191.631128 L676.215524,201.870185 L634.294285,222.873973 Z M728.54499,212.144029 L728.196151,213.91818 L634.639565,223.859613 C634.618208,223.73979 634.557695,223.635428 634.522099,223.515605 L677.301197,202.078908 L728.54499,212.144029 Z M729.153679,209.075017 L728.687374,211.425092 L678.369073,201.549369 L700.185773,190.610701 L729.153679,209.075017 Z M734.336436,211.436687 L729.997301,208.676896 L736.678643,174.890714 C736.685762,174.894579 736.692881,174.894579 736.700001,174.894579 L736.436591,210.280977 C735.603648,210.331225 734.841897,210.737076 734.336436,211.436687 L734.336436,211.436687 Z M793.532342,318.952583 L738.291135,215.819885 C738.479793,215.66914 738.654213,215.502934 738.803716,215.298076 L758.484664,228.567492 L793.532342,318.952583 Z M794.123234,318.338008 L759.602374,229.321216 L814.929011,266.613183 L794.123234,318.338008 Z M816.39912,267.598823 L796.771565,321.275601 C796.72885,321.264005 796.696814,321.229218 796.650539,321.221487 C796.173555,321.097799 795.707249,321.155778 795.262301,321.283331 L794.454275,319.19996 L815.462949,266.968787 L816.39912,267.598823 Z M816.673208,266.86056 L815.754835,266.245984 L828.320172,235.003139 L816.673208,266.86056 Z M858.088985,291.683219 C857.939482,291.613644 857.818456,291.509282 857.654716,291.47063 C857.231125,291.362403 856.814653,291.385594 856.41242,291.47836 L836.31856,219.735387 C836.75283,219.54599 837.137265,219.271557 837.43983,218.881166 L879.85941,249.296847 L858.088985,291.683219 Z M858.793783,292.096801 C858.751068,292.062014 858.726151,292.011765 858.683436,291.976978 L880.404026,249.691103 L891.146855,257.394553 L858.793783,292.096801 Z M936.592083,289.974777 C936.488855,290.195096 936.36427,290.399955 936.307317,290.647331 C936.271721,290.828998 936.303757,291.002934 936.296638,291.176871 L859.840301,294.126059 C859.772669,293.561732 859.555534,293.055384 859.242291,292.61861 L891.70927,257.792675 L936.592083,289.974777 Z M938.193897,288.451867 C937.706234,288.633534 937.271964,288.931158 936.937363,289.356336 L892.189814,257.274731 L924.396944,222.727093 L938.193897,288.451867 Z M942.483197,203.327385 C942.810679,203.613414 943.184436,203.841464 943.622265,203.953556 C943.693456,203.972883 943.761089,203.945826 943.83584,203.961287 L939.02684,288.285661 C938.94141,288.289526 938.85598,288.266335 938.77055,288.27793 L924.895285,222.189823 L942.483197,203.327385 Z M941.294296,201.680787 L941.607539,201.939759 C941.710767,202.252845 941.846032,202.538873 942.03113,202.801711 L924.720866,221.370389 L921.207555,204.622245 L941.294296,201.680787 Z M946.217203,204.788451 L945.729539,203.582492 C945.946674,203.447208 946.113975,203.246215 946.291954,203.049087 L997.400482,247.027943 L946.217203,204.788451 Z M1024.63487,229.270968 L1016.15238,262.36527 L998.511073,247.182553 L1023.52784,228.420612 C1023.82329,228.795542 1024.18992,229.08157 1024.63487,229.270968 L1024.63487,229.270968 Z M1024.65623,269.597159 C1024.81285,269.322726 1024.96235,269.032832 1025.03354,268.696555 C1025.16169,268.097441 1025.0727,267.525383 1024.89828,266.984248 L1041.01964,258.484555 L1061.41607,299.974188 L1024.65623,269.597159 Z M999.30842,331.418026 L1008.9371,305.060862 L999.692855,331.607424 C999.578949,331.522388 999.433006,331.483736 999.30842,331.418026 L999.30842,331.418026 Z M907.520949,384.696683 C906.883783,384.538208 906.267975,384.673492 905.70912,384.944059 L864.987462,308.810158 L887.75813,303.572739 L930.690291,315.640061 L907.585021,384.727605 C907.563664,384.72374 907.545866,384.704414 907.520949,384.696683 L907.520949,384.696683 Z M842.658182,313.94708 L864.393011,308.945442 L905.207218,385.241684 C904.940249,385.450408 904.701757,385.686188 904.513099,385.979947 L823.26556,339.461619 L842.658182,313.94708 Z M706.760327,326.810644 L736.10555,216.395808 C736.61813,216.492439 737.109353,216.407404 737.568539,216.225737 L787.915317,324.445109 L708.515203,329.176179 C708.36926,328.113235 707.696498,327.231957 706.760327,326.810644 L706.760327,326.810644 Z M385.877933,169.305422 L389.918063,163.897933 L448.693938,137.420945 L466.064716,178.0293 C465.395513,178.446747 464.875814,179.138628 464.687156,180.01604 C464.687156,180.023771 464.690716,180.031501 464.687156,180.039232 L385.877933,169.305422 Z M318.228011,155.061963 C318.512778,154.729551 318.737032,154.346891 318.872296,153.890791 L371.283633,167.036519 C371.070058,168.625138 371.974192,170.159643 373.444301,170.530708 C374.330638,170.751027 375.184938,170.468864 375.847021,169.896806 C375.907534,170.008899 376.010762,170.090069 376.085513,170.190566 C376.299089,170.584821 376.594534,170.917233 376.946933,171.176205 L360.444695,201.781284 C360.238239,201.669191 360.05314,201.533907 359.821767,201.475929 C358.949669,201.255609 358.102488,201.526177 357.447524,202.078908 L318.228011,155.061963 Z M381.364379,168.690847 C381.375058,168.377762 381.35726,168.080137 381.282508,167.790243 L388.657969,164.466125 L385.123301,169.201061 L381.364379,168.690847 Z M379.11828,171.647766 C380.189716,171.411986 381.086731,170.534573 381.346581,169.305422 C381.35014,169.297692 381.346581,169.289961 381.35014,169.282231 L384.721068,169.742196 L379.452881,176.796284 L379.11828,171.647766 Z M377.281534,171.342411 C377.480871,171.450638 377.669529,171.589787 377.900902,171.647766 C378.057524,171.686419 378.210586,171.651631 378.370767,171.659362 L378.762322,177.723945 L361.021348,201.487524 L377.281534,171.342411 Z M389.60126,163.209917 L381.026218,167.071306 C380.951467,166.928291 380.851798,166.808469 380.759249,166.68478 C380.727213,166.634532 380.702296,166.592014 380.673819,166.545631 L429.073503,110.333247 L389.60126,163.209917 Z M433.864705,106.653526 C434.42356,106.792675 434.961058,106.692178 435.466519,106.498916 L448.394933,136.717469 L390.857793,162.63786 L432.981928,106.216752 C433.248897,106.402284 433.533664,106.56849 433.864705,106.653526 L433.864705,106.653526 Z M504.038374,113.842898 L468.723726,177.967456 C468.531508,177.863094 468.357089,177.72781 468.139954,177.673697 C467.57398,177.534547 467.036482,177.635044 466.531021,177.836037 L449.160244,137.208356 L503.237467,112.845662 C503.443923,113.232187 503.703773,113.58006 504.038374,113.842898 L504.038374,113.842898 Z M543.197374,154.362352 L470.051451,179.413061 C469.848555,178.933769 469.570907,178.496996 469.168674,178.187775 L504.486881,114.067082 C504.682659,114.167579 504.857078,114.298997 505.074213,114.356976 C505.953431,114.577296 506.804172,114.295132 507.462695,113.738536 L543.197374,154.362352 Z M608.764938,187.348427 C608.66171,187.572611 608.530006,187.7852 608.473052,188.044172 C608.462374,188.09442 608.480172,188.144669 608.469493,188.191052 L574.685467,186.304808 C574.635633,185.477644 574.297472,184.73165 573.735058,184.190514 L584.036498,169.204926 L608.764938,187.348427 Z M733.994716,212.15949 C733.95556,212.256121 733.905726,212.345022 733.87369,212.445519 L729.424208,211.568106 L729.83712,209.507926 L733.994716,212.15949 Z M834.620638,219.932515 C835.044228,220.040742 835.4607,220.021416 835.862933,219.924784 L855.956793,291.667758 C855.508285,291.864886 855.106052,292.150914 854.799928,292.556766 L817.189348,267.208433 L834.496052,219.874536 C834.542327,219.889997 834.574363,219.920919 834.620638,219.932515 L834.620638,219.932515 Z M1020.21031,265.847863 L1020.04301,265.712579 L1016.65428,262.794313 L1025.19729,229.468096 C1025.20796,229.471961 1025.2222,229.468096 1025.23288,229.468096 L1022.30334,264.931798 C1021.49532,264.912472 1020.75848,265.244884 1020.21031,265.847863 L1020.21031,265.847863 Z M940.215741,294.172442 C940.650011,293.971449 941.041565,293.68542 941.34413,293.283434 L995.581534,332.678099 C995.52814,332.786326 995.485425,332.898419 995.44271,333.014376 L947.153374,319.439605 L940.215741,294.172442 Z M938.400353,294.36184 C938.42527,294.365705 938.443068,294.388896 938.460866,294.392762 C938.85598,294.489393 939.251094,294.493258 939.62485,294.419818 L946.437897,319.238612 L931.484078,315.033216 L938.400353,294.36184 Z M889.377741,303.197809 L936.4497,292.375099 C936.698871,293.136554 937.197213,293.747264 937.891332,294.110598 L930.943021,314.882471 L889.377741,303.197809 Z M798.814767,324.657698 L801.039508,323.513583 L841.64726,314.17513 L822.681788,339.125342 L798.640348,325.361174 C798.690182,325.22589 798.775612,325.109932 798.807648,324.963053 C798.829006,324.862556 798.804089,324.76206 798.814767,324.657698 L798.814767,324.657698 Z M792.923653,327.676461 L794.486311,326.876353 C794.685648,327.015503 794.906342,327.119864 795.144835,327.197169 L794.450716,330.447848 L792.969928,329.701854 C792.998405,329.609088 793.058918,329.543378 793.080275,329.446747 C793.20842,328.828307 793.112311,328.233057 792.923653,327.676461 L792.923653,327.676461 Z M791.510498,324.827769 L791.122503,325.797948 C791.051311,325.774756 790.994358,325.720643 790.923166,325.701316 C790.357192,325.558302 789.809016,325.662664 789.299995,325.867522 L788.887083,324.982379 L791.510498,324.827769 Z M854.44041,293.244781 C854.362099,293.434179 854.251752,293.600385 854.209037,293.812974 C854.080892,294.412088 854.169881,294.991876 854.347861,295.536877 L798.497964,322.771454 C798.234555,322.241914 797.825203,321.836063 797.319741,321.546169 L816.91526,267.950561 L854.44041,293.244781 Z M858.679876,297.013404 C859.103467,296.680992 859.41671,296.213296 859.623166,295.660565 L886.152757,303.120504 L864.595907,308.07576 L858.679876,297.013404 Z M855.454892,297.10617 C855.72898,297.303298 856.020866,297.473369 856.362586,297.554539 C856.999752,297.713015 857.61912,297.581596 858.170855,297.311028 L864.001456,308.211043 L843.416374,312.945979 L855.454892,297.10617 Z M803.94413,322.02546 L854.536519,296.078012 C854.653985,296.286736 854.814166,296.460672 854.974348,296.638474 L842.405451,313.177894 L803.94413,322.02546 Z M798.829006,324.023796 L798.971389,323.992874 L798.829006,324.066314 C798.825446,324.050853 798.829006,324.035392 798.829006,324.023796 L798.829006,324.023796 Z M792.745674,327.181708 C792.724317,327.135325 792.699399,327.085077 792.670923,327.034829 L793.781513,326.172877 C793.866944,326.288835 793.966612,326.397062 794.06984,326.505289 L792.745674,327.181708 Z M792.208177,324.785251 L793.172824,324.731138 C793.236897,325.175642 793.38284,325.593089 793.607094,325.968019 L792.500063,326.837701 C792.275809,326.532346 792.00884,326.277239 791.688477,326.076246 L792.208177,324.785251 Z M794.304773,321.785814 C793.777954,322.214858 793.361482,322.810107 793.201301,323.559966 C793.158586,323.757094 793.194182,323.942626 793.187063,324.132023 L792.453788,324.178406 L793.795752,320.834962 L794.304773,321.785814 Z M798.665265,323.23915 L798.665265,323.23915 L834.560125,305.737281 L801.876011,322.504752 L798.665265,323.23915 Z M887.768809,302.745575 L859.818944,294.887514 C859.826063,294.81794 859.822503,294.756095 859.822503,294.682656 L935.495731,291.768254 L887.768809,302.745575 Z M971.262446,266.837368 L946.790296,206.218595 L996.927058,247.588405 L971.262446,266.837368 Z M1014.20529,269.952763 L976.765565,280.473983 L971.508058,267.440348 L997.425399,247.998122 L1015.92101,263.262009 L1014.20529,269.952763 Z M1014.70363,270.408863 L1019.5767,269.036698 C1019.81519,269.751769 1020.27082,270.331558 1020.90443,270.698757 L1018.96801,276.253126 L999.660819,329.10274 L1014.70363,270.408863 Z M941.586182,292.83893 C941.714327,292.587688 941.853151,292.344177 941.913664,292.054283 C941.999094,291.644566 942.002653,291.238715 941.94214,290.848324 L976.2957,281.196786 L996.599576,331.491466 C996.30057,331.680864 996.04784,331.93597 995.830705,332.22973 L941.586182,292.83893 Z M941.611099,289.86655 L970.924285,267.884852 L976.082125,280.663381 L941.767721,290.307188 C941.717887,290.156444 941.678731,290.005699 941.611099,289.86655 L941.611099,289.86655 Z M997.25098,331.217033 L976.9827,281.003523 L1014.04154,270.59053 L998.532431,331.116537 C998.087482,331.039232 997.660332,331.085615 997.25098,331.217033 L997.25098,331.217033 Z M1019.78316,266.450843 C1019.64077,266.71368 1019.49839,266.976517 1019.43076,267.289603 C1019.34533,267.69932 1019.34177,268.101306 1019.39872,268.495562 L1014.86737,269.76723 L1016.42647,263.679456 L1019.78316,266.450843 Z M945.647669,205.271608 L970.678674,267.274142 L941.251581,289.348606 C940.867146,288.861584 940.379482,288.463462 939.756555,288.308852 C939.685363,288.289526 939.617731,288.316583 939.54298,288.301122 L944.341301,204.193202 L945.647669,205.271608 Z M741.797327,223.762981 L793.407757,320.11216 L791.759669,324.220924 L788.620115,324.406456 L741.797327,223.762981 Z M733.78826,213.968429 C733.86657,214.385876 734.026752,214.764671 734.243887,215.104813 L727.409482,221.76078 L728.847555,214.497968 L733.78826,213.968429 Z M733.777581,213.164456 C733.777581,213.218569 733.774021,213.268818 733.774021,213.322931 L728.97926,213.833145 L729.285384,212.283178 L733.777581,213.164456 Z M727.149633,223.071101 L734.735109,215.684601 C734.966482,215.893325 735.229892,216.0518 735.518218,216.183219 L708.120089,319.265669 L727.149633,223.071101 Z M633.799503,226.688978 C634.187498,226.283127 634.51142,225.79997 634.639565,225.185395 C634.689399,224.953479 634.657363,224.737025 634.653804,224.508975 L728.064446,214.583004 L726.462633,222.688441 L669.761995,277.899724 L633.799503,226.688978 Z M631.784778,313.000093 C631.660192,312.969171 631.542726,313.003958 631.4217,312.988497 L632.073104,227.55093 C632.514493,227.512277 632.930964,227.392455 633.301161,227.156674 L669.270773,278.379016 L632.991477,313.707434 C632.646197,313.386618 632.258203,313.119916 631.784778,313.000093 L631.784778,313.000093 Z M617.557115,231.083772 L630.346705,313.085128 C630.296871,313.104455 630.250596,313.131511 630.200762,313.150838 L596.769135,240.089813 L617.557115,231.083772 Z M584.114809,212.430058 L596.131969,202.171674 L614.898104,214.053464 L617.436089,230.310721 L596.452332,239.401798 L584.114809,212.430058 Z M507.629995,277.745114 L583.555954,212.909349 L595.808047,239.680096 L507.67271,277.861072 C507.654912,277.826284 507.654912,277.779901 507.629995,277.745114 L507.629995,277.745114 Z M571.214871,189.551621 C571.763047,189.686905 572.300545,189.594139 572.795327,189.400876 L583.235591,212.209738 L507.16369,277.176922 C507.15657,277.169191 507.153011,277.161461 507.145892,277.15373 L570.36057,189.130308 C570.627539,189.30811 570.898068,189.474316 571.214871,189.551621 L571.214871,189.551621 Z M569.050643,185.991722 L470.31842,180.476006 C470.311301,180.379374 470.339778,180.271147 470.32198,180.17065 L543.777586,155.01558 L569.705607,184.495869 C569.410161,184.870799 569.168109,185.292112 569.057762,185.802325 C569.047083,185.868034 569.064881,185.929878 569.050643,185.991722 L569.050643,185.991722 Z M629.488845,222.696171 L615.521032,213.856336 L612.068234,191.704567 C612.260451,191.638858 612.452669,191.573149 612.627089,191.468787 L630.179405,221.973369 C629.915995,222.174362 629.673944,222.406277 629.488845,222.696171 L629.488845,222.696171 Z M629.342902,225.977772 C629.727337,226.727631 630.364503,227.32288 631.190327,227.527738 C631.311353,227.55866 631.432379,227.523873 631.553405,227.535469 L630.902001,312.443496 L618.169363,230.817069 L629.342902,225.977772 Z M629.086612,225.258835 L618.044778,230.044019 L615.627819,214.513429 L629.293068,223.163867 C629.204078,223.368725 629.083052,223.550392 629.033218,223.782308 C628.926431,224.288656 628.972705,224.787274 629.086612,225.258835 L629.086612,225.258835 Z M609.291757,190.931517 C609.658394,191.325773 610.089104,191.654319 610.630161,191.789603 C610.90069,191.859178 611.164099,191.832121 611.427508,191.81666 L614.798436,213.396371 L596.527083,201.831532 L609.291757,190.931517 Z M574.407819,187.823853 C574.493249,187.618994 574.617835,187.437327 574.664109,187.213143 C574.671228,187.17449 574.65699,187.139703 574.664109,187.10105 L608.451695,188.991159 C608.487291,189.482047 608.597638,189.949742 608.825451,190.359459 L595.879239,201.414085 L574.407819,187.823853 Z M574.212042,188.291548 L595.477006,201.754227 L583.794446,211.734312 L573.439612,189.103252 C573.738617,188.886797 574.002026,188.61623 574.212042,188.291548 L574.212042,188.291548 Z M670.203384,278.529761 L726.202783,223.994897 L705.902467,326.582594 C705.304456,326.536211 704.713565,326.648303 704.218783,326.96912 L670.203384,278.529761 Z M608.583399,135.213885 C608.772058,135.264133 608.950037,135.221616 609.135135,135.233211 L610.961203,185.678637 C610.242166,185.767538 609.601441,186.146333 609.128016,186.733851 L584.442291,168.621273 L607.711301,134.788707 C607.97827,134.966509 608.259477,135.13658 608.583399,135.213885 L608.583399,135.213885 Z M244.751047,141.340312 C244.786643,141.23595 244.850716,141.15478 244.875633,141.042688 L313.351379,152.750541 C313.280187,153.913982 313.785648,154.992388 314.682664,155.587637 L306.570368,175.246317 L244.751047,141.340312 Z M507.989513,279.789833 C508.042907,279.368521 508.02155,278.970399 507.925441,278.580009 L596.121291,240.371976 L629.560037,313.448462 C629.086612,313.788605 628.744892,314.298818 628.520638,314.894067 L507.989513,279.789833 Z M633.952565,316.285558 C634.002399,315.555025 633.852897,314.85928 633.48626,314.287222 L669.712161,279.005187 L703.724001,327.436815 C703.350244,327.823341 703.054798,328.287171 702.912415,328.863094 L633.952565,316.285558 Z M909.233109,385.991543 C908.951902,385.550904 908.556788,385.222358 908.097602,384.982712 L931.231348,315.790806 L946.683508,320.131486 L957.049021,357.898879 L909.233109,385.991543 Z M1172.92364,283.960442 L1160.69291,295.950459 L1109.68761,330.556075 L1171.30759,281.022849 L1172.92364,283.960442 Z M1173.3152,283.573917 L1171.72406,280.690437 L1196.90813,260.448104 L1173.3152,283.573917 Z M1305.14445,278.881499 C1304.74933,278.255328 1304.162,277.76444 1303.42873,277.578908 C1301.97997,277.21944 1300.5775,278.13937 1300.10407,279.627493 L1207.60112,256.42824 L1321.36192,268.654037 L1305.14445,278.881499 Z M1325.77936,269.129464 L1315.36758,277.462951 L1305.50396,279.778237 C1305.46125,279.604301 1305.40074,279.438095 1305.32598,279.275755 L1322.04892,268.727477 L1325.77936,269.129464 Z M1326.65502,268.425987 L1323.12747,268.051058 L1341.9826,256.157672 L1326.65502,268.425987 Z M1341.96836,270.06872 L1341.96836,270.072586 L1327.65171,268.534215 L1344.08275,255.376891 C1344.46719,255.81753 1344.91569,256.176999 1345.49591,256.320013 C1345.58846,256.343204 1345.67033,256.316148 1345.76288,256.327743 L1344.86942,267.714781 C1343.5239,267.664532 1342.28516,268.588328 1341.96836,270.06872 L1341.96836,270.06872 Z M1341.93988,271.228296 L1316.96227,277.091886 L1326.77249,269.233825 L1341.95056,270.868828 C1341.95056,270.988651 1341.92208,271.112339 1341.93988,271.228296 L1341.93988,271.228296 Z M1176.84987,284.679379 L1200.69197,257.839058 C1201.03369,258.156008 1201.41812,258.411115 1201.88087,258.527073 C1202.5216,258.689413 1203.14096,258.55413 1203.70338,258.279697 L1217.43626,284.339237 L1177.59382,286.240942 C1177.50127,285.641827 1177.2165,285.123883 1176.84987,284.679379 L1176.84987,284.679379 Z M1171.98035,285.974239 C1171.98035,285.997431 1171.96255,286.016757 1171.95544,286.039948 C1171.80237,286.778212 1171.93408,287.501014 1172.2224,288.127185 L1164.30945,293.499888 L1171.98035,285.974239 Z M1176.59358,284.38562 C1176.25542,284.072534 1175.86742,283.817428 1175.40467,283.697605 C1175.04516,283.608704 1174.68208,283.612569 1174.3368,283.670548 L1196.79066,261.654063 L1176.59358,284.38562 Z M1305.60363,280.446926 C1305.60007,280.35416 1305.62143,280.261394 1305.61431,280.168628 L1314.62006,278.0582 L1311.45559,280.589941 L1305.60363,280.446926 Z M1300.80175,282.812462 C1301.16483,283.210583 1301.59554,283.535264 1302.1366,283.670548 C1303.68502,284.057073 1305.22632,283.00959 1305.58228,281.328204 C1305.61431,281.200651 1305.58228,281.076963 1305.59651,280.953275 L1310.8469,281.080828 L1250.7433,329.18391 L1300.80175,282.812462 Z M1299.94745,281.131076 C1300.01864,281.602637 1300.2073,282.035546 1300.46003,282.418206 L1246.31162,332.581468 C1245.94498,332.187212 1245.51783,331.858665 1244.98033,331.727247 C1244.33961,331.564906 1243.71668,331.70019 1243.15782,331.978488 L1218.40447,285.023387 L1299.94745,281.131076 Z M1204.16257,258.016859 C1204.64667,257.64966 1205.00619,257.12012 1205.20196,256.486219 L1299.97237,280.253664 C1299.96525,280.300047 1299.97237,280.342565 1299.96525,280.392813 L1218.03071,284.308315 L1204.16257,258.016859 Z M1130.0164,211.552645 C1130.31896,212.066724 1130.78883,212.437788 1131.32989,212.68903 L1100.78152,330.784125 L1046.84312,255.411678 L1130.0164,211.552645 Z M606.415612,131.93615 C606.397814,132.198987 606.358659,132.46569 606.397814,132.716931 L558.065762,149.271813 L508.231565,112.710378 C508.309876,112.540307 508.398866,112.377966 508.45226,112.188569 L606.415612,131.93615 Z M520.939285,6.19171764 L505.878679,108.253741 C504.508239,108.17257 503.237467,109.111827 502.917104,110.60768 C502.906425,110.654063 502.924223,110.700446 502.917104,110.742964 L437.328182,103.650224 C437.338861,102.896499 437.111047,102.204619 436.680337,101.644157 L519.967519,5.69696517 C520.248726,5.92501514 520.579767,6.08735579 520.939285,6.19171764 L520.939285,6.19171764 Z M248.310633,74.2704305 L314.0277,150.933872 C313.739374,151.297206 313.497322,151.714653 313.383415,152.213271 L244.907669,140.513148 C245.000218,139.009564 244.131679,137.606477 242.739881,137.254739 C242.66513,137.235413 242.590379,137.26247 242.519187,137.250874 L246.623389,74.8695448 C247.246317,74.8656796 247.826529,74.6608211 248.310633,74.2704305 L248.310633,74.2704305 Z M55.0927725,263.362505 L137.742788,169.738331 C138.056032,169.993438 138.419109,170.198296 138.824902,170.302658 C139.152384,170.383828 139.469187,170.368367 139.782431,170.325849 L152.732203,241.713219 C151.763995,242.018574 150.95241,242.826412 150.710358,243.970528 C150.639166,244.295209 150.660524,244.616025 150.685441,244.92911 L55.6195912,264.429315 C55.5128036,264.038925 55.3348244,263.683321 55.0927725,263.362505 L55.0927725,263.362505 Z M554.99384,398.21734 C554.4777,398.089787 553.986477,398.167092 553.516612,398.321702 L506.619073,282.039411 C507.15657,281.699269 507.551684,281.158133 507.793736,280.504905 L628.32842,315.609139 C628.214513,316.498147 628.456565,317.336907 628.951348,317.994 L556.11155,398.824185 C555.791187,398.542022 555.42099,398.325567 554.99384,398.21734 L554.99384,398.21734 Z M660.211627,455.183449 C659.901944,455.106144 659.602938,455.12547 659.307493,455.152527 L632.073104,318.937122 C632.945203,318.600845 633.660679,317.858717 633.90985,316.822829 L702.8697,329.400364 C702.78071,330.637245 703.360923,331.769765 704.350488,332.345687 L660.27926,455.218236 C660.254342,455.210506 660.232985,455.191179 660.211627,455.183449 L660.211627,455.183449 Z M974.473192,409.956116 C974.220462,409.573456 973.885861,409.283562 973.494306,409.055512 L998.507513,337.239099 C999.489959,337.069027 1000.3051,336.326899 1000.68598,335.287145 L1067.50652,355.637706 L974.473192,409.956116 Z M5.69996425,191.499709 L136.756783,168.130385 C136.86713,168.532372 137.045109,168.88411 137.287161,169.204926 L54.6371456,262.8291 C54.3239021,262.573993 53.9643839,262.373 53.5550316,262.272504 C52.7968399,262.079241 52.0422078,262.241582 51.4263995,262.647433 L4.75667409,193.896166 C5.18738394,193.482584 5.5397829,192.968505 5.67860674,192.311412 C5.73911969,192.036979 5.70708342,191.766411 5.69996425,191.499709 L5.69996425,191.499709 Z M1371.12492,279.271889 C1370.23503,279.047705 1369.37361,279.341464 1368.7044,279.913521 L1348.17628,255.415544 C1348.52867,255.021288 1348.82412,254.553592 1348.94871,253.981535 C1349.30466,252.300149 1348.34002,250.626494 1346.7916,250.236104 C1345.24318,249.849578 1343.69832,250.893197 1343.34236,252.578447 C1343.31388,252.69054 1343.34236,252.806497 1343.33168,252.92632 L1205.35859,255.040614 C1205.1984,253.803733 1204.36546,252.740788 1203.173,252.443164 C1202.01614,252.149404 1200.86639,252.667348 1200.20431,253.645257 L1134.98202,211.208637 C1135.06745,210.999914 1135.1956,210.814382 1135.24187,210.578601 C1135.60139,208.901081 1134.63318,207.223561 1133.09188,206.837036 C1131.53634,206.446645 1129.99504,207.497994 1129.63552,209.171649 C1129.57857,209.449947 1129.60705,209.71665 1129.61773,209.979487 L1028.42227,225.660821 C1028.16598,224.566954 1027.40067,223.647024 1026.315,223.376456 C1025.01575,223.051775 1023.76277,223.770712 1023.16832,224.992132 L918.520068,180.924375 C918.527187,180.889588 918.552104,180.866396 918.559223,180.831609 C918.915182,179.157954 917.950534,177.476569 916.405674,177.086178 C914.857254,176.699653 913.312394,177.747136 912.952876,179.428522 C912.83541,179.992849 912.906602,180.53785 913.056104,181.051928 L837.774431,215.429494 C837.397115,214.664174 836.75283,214.061195 835.912767,213.848606 C834.634876,213.52779 833.3997,214.21967 832.791011,215.406303 L739.62598,172.730037 C739.643778,172.660463 739.693612,172.610214 739.70785,172.54064 C740.063809,170.859254 739.099161,169.1856 737.550741,168.795209 C736.169622,168.447336 734.845456,169.2745 734.304399,170.638935 L612.039757,132.651222 C612.26757,131.051007 611.356317,129.50104 609.875529,129.129976 C609.160052,128.948309 608.451695,129.106784 607.853684,129.462388 L523.637451,5.39547538 C524.025446,4.993489 524.349368,4.50646704 524.481073,3.89575696 C524.837032,2.21437162 523.872384,0.536851524 522.323964,0.146460904 C520.775545,-0.240064463 519.234244,0.807419281 518.874726,2.49266988 C518.83557,2.67047155 518.871166,2.84827322 518.860488,3.02607489 L374.473021,15.843256 C374.241648,14.7030062 373.447861,13.7405581 372.330151,13.4583945 C370.781731,13.0718692 369.236871,14.1193529 368.880912,15.796873 C368.770565,16.3186822 368.820399,16.8250305 368.941425,17.3043219 L249.090182,70.300815 C248.709306,69.5509558 248.068581,68.9711677 247.246317,68.7663093 C245.697897,68.3759186 244.156596,69.4272676 243.797078,71.1047877 C243.619099,71.9512783 243.775721,72.7939036 244.170835,73.4741882 L141.412721,165.022721 C141.053203,164.651657 140.640291,164.346302 140.117032,164.211018 C138.572172,163.824493 137.027311,164.871976 136.667793,166.553362 C136.61084,166.827795 136.639317,167.094497 136.649995,167.36893 L5.59317668,190.734389 C5.30485026,189.69077 4.56801606,188.828819 3.52505751,188.565981 C1.97663782,188.179456 0.43177772,189.223075 0.0722595855,190.908325 C-0.283698964,192.585845 0.680948705,194.263365 2.22936839,194.649891 C2.99111969,194.839288 3.74219223,194.676947 4.3615601,194.274961 L51.0277259,263.022363 C50.6005756,263.435945 50.2446171,263.953889 50.1057933,264.607117 C49.7498347,266.292367 50.7144824,267.966022 52.2629021,268.356413 C53.3058606,268.615385 54.3167829,268.190207 54.9966637,267.390099 L144.865519,338.437327 C144.733814,338.692434 144.591431,338.947541 144.523798,339.252896 C144.16784,340.930416 145.132488,342.611801 146.680907,342.998326 C148.229327,343.384852 149.774187,342.337368 150.130146,340.655983 C150.236933,340.149635 150.190659,339.654882 150.080311,339.183321 L255.525912,295.250848 C255.899669,296.031629 256.543954,296.65007 257.398254,296.866524 C258.80785,297.222127 260.171172,296.352445 260.680192,294.930032 L386.1627,328.839902 C385.995399,330.401465 386.885296,331.889587 388.326928,332.252921 C389.327172,332.500298 390.291819,332.109907 390.9717,331.375509 L493.975425,418.285737 C493.829482,418.556305 493.67998,418.830738 493.612348,419.155419 C493.256389,420.836805 494.221037,422.514325 495.769456,422.90085 C497.317876,423.291241 498.859177,422.239892 499.218695,420.566237 C499.314804,420.098541 499.293446,419.642441 499.208016,419.209533 L551.708342,402.357027 C552.039384,403.292418 552.729944,404.061604 553.698151,404.305115 C554.90841,404.606605 556.097311,404.011356 556.734477,402.944546 L656.904773,457.174055 C656.865617,457.301608 656.790866,457.394374 656.762389,457.521927 C656.402871,459.203313 657.367519,460.876968 658.915938,461.267358 C660.464358,461.657749 662.005659,460.6064 662.365177,458.925014 C662.489762,458.337496 662.404332,457.777034 662.237032,457.243629 L778.671073,396.106912 C779.062627,396.764005 779.678436,397.270353 780.433068,397.459751 C781.557897,397.741914 782.675607,397.251027 783.341249,396.319501 L885.61526,463.335269 C885.533389,463.524666 885.426602,463.687007 885.380327,463.891865 C885.024368,465.573251 885.989016,467.250771 887.537436,467.637296 C889.082296,468.027687 890.627156,466.976338 890.986674,465.298818 C891.132617,464.606937 891.011591,463.934383 890.76242,463.331404 L969.859969,413.570128 C970.255083,414.161512 970.813938,414.629207 971.518736,414.803144 C973.067156,415.193534 974.612016,414.146051 974.967975,412.464665 C975.074762,411.973778 975.035607,411.498352 974.935938,411.038387 L1090.3021,364.442754 C1090.67942,365.2274 1091.32371,365.853571 1092.18157,366.070026 C1093.72998,366.460416 1095.27485,365.409067 1095.6308,363.731547 C1095.81946,362.842539 1095.62012,361.965126 1095.1823,361.273246 L1122.90435,335.461082 L1241.49906,335.167323 C1241.64856,336.42353 1242.47794,337.509666 1243.68464,337.811156 C1245.23306,338.201547 1246.77436,337.154063 1247.13388,335.472678 C1247.23711,334.977925 1247.20151,334.490903 1247.09117,334.027073 L1367.96401,283.767179 C1368.34489,284.536365 1368.98561,285.14321 1369.83279,285.355799 C1371.37409,285.746189 1372.91895,284.69484 1373.27491,283.01732 C1373.63443,281.335935 1372.66622,279.66228 1371.12492,279.271889 L1371.12492,279.271889 Z" id="Fill-1" fill="#4982B0" mask="url(#mask-3)"></path>
                </g>
            </g>
        </g>
    </g>
</svg>