<svg id="CATALYST_LOGO" xmlns="http://www.w3.org/2000/svg" viewBox="0 0 165.42 62.32"><defs><style>.cls-1,.cls-4{fill:#273759;}.cls-2,.cls-3{fill:#589dd5;}.cls-3,.cls-4{fill-rule:evenodd;}</style></defs><title>CATALYST_LOGO_onWHITE</title><g id="CATALYST_LOGO_onWHITE"><g id="CATALYST_onWHITE"><path class="cls-1" d="M32.68,29.17a11.45,11.45,0,0,1-21.26-5.84,11.46,11.46,0,0,1,21.19-5.72h-2.8A9.07,9.07,0,1,0,22.9,32.46a8.9,8.9,0,0,0,7-3.29Z"/><path class="cls-1" d="M43.78,12.44h2.43l9.87,22H53.66l-3.94-8.74H40.28L36.34,34.4H33.91ZM45,15.15l-3.78,8.37h7.54Z"/><path class="cls-1" d="M60.76,14.59H53.32V12.44h17.1v2.15H63V34.4H60.76Z"/><path class="cls-1" d="M79.07,12.44H81.5l9.87,22H88.94L85,25.67H75.56L71.62,34.4H69.19Zm1.23,2.71-3.78,8.37h7.54Z"/><path class="cls-1" d="M93.22,12.44h2.25V32.25h10.12V34.4H93.22Z"/><path class="cls-2" d="M114.22,28l-7.6-15.54h2.43l6.4,13.07,6.4-13.07h2.43l-10.77,22h-2.43Z"/><path class="cls-1" d="M134.67,16.93a3.84,3.84,0,0,0-3.6-2.58,3.74,3.74,0,0,0-4,3.63c0,1.91,1.32,2.77,4,3.6,4.09,1.29,7.14,2.89,7.14,6.74s-3.17,6.37-7.14,6.37A6.89,6.89,0,0,1,124,28.8h2.34a4.68,4.68,0,0,0,4.74,3.63c2.68,0,4.8-1.57,4.8-4.12,0-2-1.32-3.14-4.8-4.21-4.09-1.26-6.31-2.8-6.31-6.12s2.52-5.87,6.31-5.87a6,6,0,0,1,6.06,4.83Z"/><path class="cls-1" d="M146.58,14.59h-7.44V12.44h17.1v2.15h-7.41V34.4h-2.25Z"/><rect class="cls-2" x="139.03" y="8.32" width="17.3" height="2.33"/></g><g id="by_IntellectEU_onWHITE"><path class="cls-3" d="M94,52l1,.25c.18,0,.33-.17.33-.49V49.93c0-.31-.14-.59-.33-.61l-1-.1c-.16,0-.29.21-.29.49v1.63C93.74,51.65,93.86,51.92,94,52Z"/><path class="cls-3" d="M96,52.45l1.22.31c.23.06.43-.18.43-.53v-2c0-.35-.21-.66-.43-.68L96,49.42c-.2,0-.36.23-.36.55v1.81C95.62,52.1,95.77,52.4,96,52.45Z"/><path class="cls-3" d="M98.38,53.07l1.55.39c.29.08.55-.19.55-.59V50.6a.75.75,0,0,0-.54-.78l-1.55-.15c-.25,0-.46.25-.46.61v2A.79.79,0,0,0,98.38,53.07Z"/><path class="cls-3" d="M94,48.85l1,.08c.18,0,.33-.23.33-.55V46.59c0-.31-.14-.56-.33-.55l-1,.08c-.16,0-.29.26-.29.55V48.3C93.74,48.59,93.86,48.84,94,48.85Z"/><path class="cls-4" d="M96,49l1.22.09c.23,0,.43-.26.43-.61v-2c0-.35-.21-.63-.43-.61L96,46c-.2,0-.36.29-.36.61v1.81C95.62,48.71,95.77,49,96,49Z"/><path class="cls-3" d="M98.38,49.19l1.55.12c.29,0,.55-.29.55-.69V46.35c0-.4-.25-.71-.54-.69l-1.55.12c-.25,0-.46.33-.46.69v2C97.93,48.86,98.13,49.17,98.38,49.19Z"/><path class="cls-3" d="M94,45.74l1-.1c.18,0,.33-.29.33-.61V43.25c0-.31-.14-.53-.33-.49L94,43c-.16,0-.29.31-.29.6v1.63C93.74,45.54,93.86,45.76,94,45.74Z"/><path class="cls-3" d="M96,45.55l1.22-.12c.23,0,.43-.33.43-.68v-2c0-.35-.21-.59-.43-.53L96,42.52c-.2.05-.36.35-.36.67V45C95.62,45.32,95.77,45.57,96,45.55Z"/><path class="cls-3" d="M98.38,45.31l1.55-.15a.75.75,0,0,0,.55-.78V42.1c0-.4-.25-.67-.54-.59l-1.55.39a.79.79,0,0,0-.46.77v2C97.93,45.06,98.13,45.33,98.38,45.31Z"/><path class="cls-4" d="M107.14,49.6a.42.42,0,0,1,.48.35v-.23c0-.29-.12-.51-.29-.49l-1,.1c-.18,0-.33.29-.33.61v0l.77-.11A.42.42,0,0,1,107.14,49.6Z"/><path class="cls-4" d="M107.26,50.44a.42.42,0,0,1-.38-.14l-.84.12v1.3c0,.31.14.53.33.49l1-.25c.16,0,.29-.31.29-.6V50.09A.42.42,0,0,1,107.26,50.44Z"/><path class="cls-4" d="M105.73,50v0c0-.32-.16-.56-.36-.55l-1.21.12c-.23,0-.43.33-.43.68v1.27L105.65,50Z"/><path class="cls-4" d="M103.73,52v.23c0,.35.2.59.43.53l1.22-.31c.2-.05.35-.35.35-.67V50.53L103.85,52Z"/><path class="cls-4" d="M101.38,52.68a.42.42,0,0,1-.5-.33v.53c0,.4.25.67.55.59l1.55-.39a.79.79,0,0,0,.46-.77v-.25l-1.73.35A.42.42,0,0,1,101.38,52.68Z"/><path class="cls-4" d="M101.21,51.84a.42.42,0,0,1,.39.12l1.82-.37V50.27c0-.36-.21-.63-.46-.61l-1.55.15a.75.75,0,0,0-.54.78v1.62A.42.42,0,0,1,101.21,51.84Z"/><path class="cls-4" d="M107.19,47.06a.42.42,0,0,1,.42.43.43.43,0,0,1-.43.42.42.42,0,0,1-.36-.2H106v.67c0,.31.14.56.33.55l1-.08c.16,0,.29-.26.29-.55V46.67c0-.29-.12-.53-.29-.55l-1-.08c-.18,0-.33.23-.33.55v.67h.79A.43.43,0,0,1,107.19,47.06Z"/><path class="cls-4" d="M105.73,46.58c0-.32-.16-.59-.36-.61l-1.21-.09c-.23,0-.43.26-.43.61v.78h2Z"/><path class="cls-4" d="M103.73,48.49c0,.35.2.63.43.61l1.22-.09c.2,0,.35-.29.35-.61v-.68h-2Z"/><path class="cls-4" d="M101.29,47.06a.43.43,0,0,1,.36.2h1.77v-.79c0-.36-.21-.67-.46-.69l-1.55-.12c-.29,0-.54.29-.54.69v1.07A.42.42,0,0,1,101.29,47.06Z"/><path class="cls-4" d="M101.3,47.91a.43.43,0,0,1-.42-.36v1.08c0,.4.25.71.55.69l1.55-.12c.25,0,.46-.33.46-.69v-.79h-1.77A.42.42,0,0,1,101.3,47.91Z"/><path class="cls-4" d="M107.26,44.48a.43.43,0,0,1,.36.35V43.61c0-.29-.12-.56-.29-.6l-1-.25c-.18,0-.33.17-.33.49v1.26l.84.12A.42.42,0,0,1,107.26,44.48Z"/><path class="cls-4" d="M107.14,45.32a.42.42,0,0,1-.33-.25L106,45V45c0,.31.14.59.33.61l1,.1c.16,0,.29-.21.29-.49V45A.42.42,0,0,1,107.14,45.32Z"/><path class="cls-4" d="M103.73,43.46v1.28c0,.35.2.66.43.68l1.22.12c.2,0,.35-.23.35-.54v-.08h-.09Z"/><path class="cls-4" d="M105.73,44.41V43.19c0-.32-.16-.62-.36-.67l-1.21-.31c-.23-.06-.43.18-.43.53V43l.11,0Z"/><path class="cls-4" d="M101.38,42.29a.42.42,0,0,1,.31.26l1.73.34v-.23a.79.79,0,0,0-.46-.77l-1.55-.39c-.29-.08-.54.19-.54.59v.59a.42.42,0,0,1,.5-.39Z"/><path class="cls-4" d="M101.22,43.13a.42.42,0,0,1-.34-.39v1.63a.75.75,0,0,0,.55.78l1.55.15c.25,0,.46-.25.46-.61V43.36L101.61,43A.42.42,0,0,1,101.22,43.13Z"/><path class="cls-3" d="M156,47.06V44l0,0a.53.53,0,0,1,.18.18.45.45,0,0,1,.06.23v2.65a.53.53,0,0,1-.16.38.54.54,0,0,1-.38.16h-.61a.54.54,0,0,1-.38-.16.53.53,0,0,1-.16-.38V43.88h.28v3.18a.26.26,0,0,0,.08.18.26.26,0,0,0,.18.08h.61a.26.26,0,0,0,.18-.08A.26.26,0,0,0,156,47.06Z"/><path class="cls-3" d="M152.83,44.24a.26.26,0,0,0-.08.18v1.11h1.41v.28h-1.41v1.23a.26.26,0,0,0,.26.26h1.15v.28H153a.54.54,0,0,1-.54-.54V44.42a.54.54,0,0,1,.54-.54h1.15v.28H153A.26.26,0,0,0,152.83,44.24Z"/><path class="cls-4" d="M137.61,49h3.68a1.3,1.3,0,0,0,1.3-1.3v-.83a1.3,1.3,0,0,0-1.3-1.3h-4a1.3,1.3,0,0,0-1.3,1.3v2.54a1.3,1.3,0,0,0,1.3,1.3h4V50.1h-4a.72.72,0,0,1-.72-.72V46.84a.72.72,0,0,1,.72-.72h4a.72.72,0,0,1,.72.72v.83a.72.72,0,0,1-.72.72h-3.68Z"/><path class="cls-4" d="M124.74,49h3.68a1.3,1.3,0,0,0,1.3-1.3v-.83a1.3,1.3,0,0,0-1.3-1.3h-4a1.3,1.3,0,0,0-1.3,1.3v2.54a1.3,1.3,0,0,0,1.3,1.3h4V50.1h-4a.72.72,0,0,1-.72-.72V46.84a.72.72,0,0,1,.72-.72h4a.72.72,0,0,1,.72.72v.83a.72.72,0,0,1-.72.72h-3.68Z"/><path class="cls-4" d="M148.46,45.55h-4a1.3,1.3,0,0,0-1.3,1.3v2.54a1.3,1.3,0,0,0,1.3,1.3h4V50.1h-4a.72.72,0,0,1-.72-.72V46.84a.72.72,0,0,1,.72-.72h4Z"/><rect class="cls-1" x="111.32" y="45.55" width="0.58" height="5.14"/><path class="cls-4" d="M119.68,50.68V46.84a1.3,1.3,0,0,0-1.3-1.3h-4a1.3,1.3,0,0,0-1.3,1.3v3.84h.58V46.84a.72.72,0,0,1,.72-.72h4a.72.72,0,0,1,.72.72v3.84Z"/><path class="cls-4" d="M122.54,46.13v-.58h-1.7v-1.7h-.58v5.54a1.3,1.3,0,0,0,1.3,1.3h1V50.1h-1a.72.72,0,0,1-.72-.72V46.13Z"/><path class="cls-4" d="M151.32,46.13v-.58h-1.7v-1.7H149v5.54a1.3,1.3,0,0,0,1.3,1.3h1V50.1h-1a.72.72,0,0,1-.72-.72V46.13Z"/><path class="cls-4" d="M132.57,50.1h-1a.72.72,0,0,1-.72-.72V43.84h-.58v5.54a1.3,1.3,0,0,0,1.3,1.3h1Z"/><path class="cls-4" d="M135.43,50.1h-1a.72.72,0,0,1-.72-.72V43.84h-.58v5.54a1.3,1.3,0,0,0,1.3,1.3h1Z"/><path class="cls-4" d="M112,44.4a.4.4,0,0,0,0-.16.41.41,0,0,0,0-.16.38.38,0,0,0-.21-.21.42.42,0,0,0-.16,0,.39.39,0,0,0-.28.12.38.38,0,0,0-.09.13.42.42,0,0,0,0,.16.4.4,0,0,0,.4.4.41.41,0,0,0,.16,0,.38.38,0,0,0,.13-.09A.4.4,0,0,0,112,44.4Z"/><path class="cls-1" d="M78.48,43h.73v3.76a2.34,2.34,0,0,1,1.8-.86,2.49,2.49,0,0,1,2.48,2.48A2.52,2.52,0,0,1,81,50.84a2.33,2.33,0,0,1-1.8-.88v.76h-.73Zm4.25,5.38A1.71,1.71,0,0,0,81,46.58a1.8,1.8,0,0,0-1.78,1.76A1.83,1.83,0,0,0,81,50.12,1.74,1.74,0,0,0,82.73,48.34Z"/><path class="cls-1" d="M85.55,52.89h-.86L86,50.18l-2.12-4.24h.86l1.68,3.38,1.69-3.38H89l-2.12,4.25Z"/></g></g></svg>