<svg id="CATALYST_LOGO" xmlns="http://www.w3.org/2000/svg" viewBox="0 0 204.094 73.701"><defs><style>.cls-1,.cls-4{fill:#589dd5;}.cls-2,.cls-5{fill:#273759;}.cls-3{fill:none;stroke:#589dd5;stroke-miterlimit:10;stroke-width:2px;}.cls-4,.cls-5{fill-rule:evenodd;}</style></defs><title>CATALYST_BP_onWhite</title><path class="cls-1" d="M70.169,54.958h3.5a2.244,2.244,0,0,1,2.418,2.335,2.314,2.314,0,0,1-.837,1.786A3.026,3.026,0,0,1,76.8,61.716a2.92,2.92,0,0,1-3.132,3.049h-3.5Zm3.5,3.708a1.374,1.374,0,0,0,0-2.747h-2.5v2.747Zm0,5.137a2.088,2.088,0,1,0,0-4.175h-2.5V63.8Z"/><path class="cls-1" d="M78.32,54.958h.92v9.807h-.92Z"/><path class="cls-1" d="M80.615,61.757a3.132,3.132,0,0,1,6.264,0,3.132,3.132,0,1,1-6.264,0Zm.962,0a2.172,2.172,0,1,0,4.34,0,2.171,2.171,0,1,0-4.34,0Z"/><path class="cls-1" d="M92.885,60.685a2.156,2.156,0,0,0-1.908-1.153,2.185,2.185,0,0,0-2.17,2.225,2.227,2.227,0,0,0,2.17,2.253,2.182,2.182,0,0,0,1.908-1.182h1.044a3.121,3.121,0,0,1-2.952,2.088,3.189,3.189,0,0,1-3.132-3.159,3.13,3.13,0,0,1,6.071-1.072Z"/><path class="cls-1" d="M95.305,64.765V54.958h.922V60.8h.2l2.253-2.2h1.291L97.49,61l3.255,3.763H99.508L96.817,61.66l-.59.578v2.527Z"/><path class="cls-1" d="M106.27,60.685a2.153,2.153,0,0,0-1.908-1.153,2.186,2.186,0,0,0-2.17,2.225,2.228,2.228,0,0,0,2.17,2.253,2.18,2.18,0,0,0,1.908-1.182h1.045a3.122,3.122,0,0,1-2.953,2.088,3.189,3.189,0,0,1-3.132-3.159,3.13,3.13,0,0,1,6.071-1.072Z"/><path class="cls-1" d="M108.762,54.408h.919v5.041a2.607,2.607,0,0,1,1.978-.824c1.731,0,2.474.769,2.474,2.692v3.448h-.922V61.317c0-1.194-.548-1.785-1.552-1.785a1.814,1.814,0,0,0-1.978,2.019v3.214h-.919Z"/><path class="cls-1" d="M115.441,61.757a3.148,3.148,0,0,1,3.132-3.132,2.961,2.961,0,0,1,2.28,1.085v-.989h.919v6.072h-.919V63.8a2.939,2.939,0,0,1-2.28,1.113A3.189,3.189,0,0,1,115.441,61.757Zm5.358,0a2.276,2.276,0,0,0-2.255-2.225,2.163,2.163,0,0,0-2.141,2.225,2.205,2.205,0,0,0,2.141,2.253A2.32,2.32,0,0,0,120.8,61.757Z"/><path class="cls-1" d="M123.564,56.84a.653.653,0,0,1,.657-.632.646.646,0,1,1,0,1.291A.65.65,0,0,1,123.564,56.84Zm.192,1.881h.96v6.044h-.96Z"/><path class="cls-1" d="M126.655,58.721h.922v.728a2.6,2.6,0,0,1,1.977-.824c1.729,0,2.472.769,2.472,2.692v3.448h-.92V61.317c0-1.194-.55-1.785-1.552-1.785a1.787,1.787,0,0,0-1.977,2.019v3.214h-.922Z"/><path class="cls-1" d="M141.289,54.958a3.051,3.051,0,1,1,0,6.1h-2.21v3.708h-1V54.958Zm0,5.137a2.088,2.088,0,1,0,0-4.176h-2.21V60.1Z"/><path class="cls-1" d="M145.729,54.958h.922v9.807h-.922Z"/><path class="cls-1" d="M148.026,61.757a3.148,3.148,0,0,1,3.132-3.132,2.959,2.959,0,0,1,2.279,1.085v-.989h.92v6.072h-.92V63.8a2.937,2.937,0,0,1-2.279,1.113A3.189,3.189,0,0,1,148.026,61.757Zm5.358,0a2.276,2.276,0,0,0-2.255-2.225,2.163,2.163,0,0,0-2.141,2.225,2.205,2.205,0,0,0,2.141,2.253A2.32,2.32,0,0,0,153.384,61.757Z"/><path class="cls-1" d="M157.562,59.559v5.206h-.919V59.559h-.908v-.838h.908V56.346h.919v2.375h1.36v.838Z"/><path class="cls-1" d="M160.56,64.765V59.559h-.812v-.838h.812V57.9c0-1.483.04-3.241,2.21-2.939v.852c-1.414-.179-1.291,1.194-1.291,2.087v.824H162.7v.838h-1.224v5.206Z"/><path class="cls-1" d="M163.667,61.757a3.132,3.132,0,1,1,6.263,0,3.132,3.132,0,1,1-6.263,0Zm.962,0a2.171,2.171,0,1,0,4.339,0,2.17,2.17,0,1,0-4.339,0Z"/><path class="cls-1" d="M172.3,59.545a2.686,2.686,0,0,1,2.044-.92v.907a1.891,1.891,0,0,0-2.044,1.9v3.337h-.922V58.721h.922Z"/><path class="cls-1" d="M184.591,61.317v3.448h-.92V61.317c0-1.194-.454-1.785-1.346-1.785-1.112,0-1.812.619-1.812,2.088v3.145h-.922V61.317c0-1.194-.452-1.785-1.346-1.785-1.112,0-1.812.619-1.812,2.088v3.145h-.922V58.721h.922v.728a2.292,2.292,0,0,1,1.812-.824,1.884,1.884,0,0,1,2.033,1.168,2.264,2.264,0,0,1,2.047-1.168C183.891,58.625,184.591,59.394,184.591,61.317Z"/><g id="CATALYST_onWHITE"><path class="cls-2" d="M53.749,43.564A12.069,12.069,0,1,1,43.365,25.538a12.207,12.207,0,0,1,10.32,5.747H50.713a9.63,9.63,0,1,0-7.348,15.772,9.448,9.448,0,0,0,7.413-3.493Z"/><path class="cls-2" d="M65.536,25.8h2.58L78.6,49.114H76.019l-4.18-9.273H61.815l-4.18,9.273h-2.58Zm1.307,2.873-4.017,8.882h8Z"/><path class="cls-2" d="M83.561,28.085h-7.9V25.8H93.815v2.285H85.944V49.114H83.561Z"/><path class="cls-2" d="M102.989,25.8h2.58l10.482,23.314h-2.579l-4.18-9.273H99.268l-4.18,9.273h-2.58Zm1.307,2.873-4.017,8.882h8Z"/><path class="cls-2" d="M118.01,25.8h2.384V46.828h10.743v2.286H118.01Z"/><path class="cls-1" d="M140.322,42.292,132.257,25.8h2.58l6.792,13.878L148.421,25.8H151L139.571,49.116h-2.58Z"/><path class="cls-2" d="M162.028,30.568a4.077,4.077,0,0,0-3.82-2.744A3.974,3.974,0,0,0,154,31.677c0,2.025,1.405,2.939,4.213,3.821,4.343,1.371,7.575,3.07,7.575,7.151s-3.363,6.759-7.575,6.759a7.311,7.311,0,0,1-7.511-6.237h2.482a4.967,4.967,0,0,0,5.029,3.854c2.841,0,5.094-1.665,5.094-4.376,0-2.156-1.4-3.33-5.094-4.474-4.344-1.338-6.694-2.971-6.694-6.5s2.678-6.236,6.694-6.236a6.316,6.316,0,0,1,6.433,5.127Z"/><path class="cls-2" d="M174.664,28.085h-7.9V25.8h18.156v2.285h-7.87V49.114h-2.384Z"/><line class="cls-3" x1="166.618" y1="23.307" x2="184.987" y2="23.307"/></g><path class="cls-4" d="M19.481,22.205l1.235.32c.234.06.418-.221.418-.625V19.608c0-.4-.183-.754-.417-.777l-1.243-.125c-.206-.02-.366.266-.366.635v2.1C19.108,21.808,19.274,22.153,19.481,22.205Z"/><path class="cls-4" d="M21.976,22.842l1.566.4c.293.075.554-.233.554-.685V19.985c0-.452-.265-.847-.558-.876l-1.552-.154c-.255-.026-.462.289-.462.7V21.98C21.524,22.39,21.722,22.777,21.976,22.842Z"/><path class="cls-4" d="M25.072,23.638l1.984.5c.378.1.7-.243.7-.757v-2.92a.958.958,0,0,0-.7-1l-1.986-.2c-.321-.032-.589.318-.589.778v2.611A1.011,1.011,0,0,0,25.072,23.638Z"/><path class="cls-4" d="M19.481,18.22l1.235.1c.234.019.418-.3.418-.7V15.324c0-.4-.183-.719-.417-.7l-1.243.1c-.206.016-.366.331-.366.7v2.1C19.108,17.889,19.274,18.2,19.481,18.22Z"/><path class="cls-5" d="M21.976,18.414l1.566.121c.293.023.554-.328.554-.78V15.187c0-.453-.265-.8-.558-.781l-1.552.121c-.255.019-.462.371-.462.78v2.326C21.524,18.043,21.722,18.394,21.976,18.414Z"/><path class="cls-4" d="M25.072,18.657l1.984.154c.378.03.7-.367.7-.881V15.011c0-.514-.321-.911-.7-.881l-1.986.154c-.321.025-.589.422-.589.881v2.611C24.485,18.236,24.75,18.632,25.072,18.657Z"/><path class="cls-4" d="M19.481,14.235l1.235-.125c.234-.023.418-.373.418-.777V11.041c0-.4-.183-.685-.417-.625l-1.243.319c-.206.053-.366.4-.366.767v2.1C19.108,13.969,19.274,14.255,19.481,14.235Z"/><path class="cls-4" d="M21.976,13.986l1.566-.154c.293-.029.554-.424.554-.877V10.387c0-.452-.265-.76-.558-.685l-1.552.4c-.255.065-.462.452-.462.862v2.326C21.524,13.7,21.722,14.012,21.976,13.986Z"/><path class="cls-4" d="M25.072,13.676l1.984-.2a.961.961,0,0,0,.7-1V9.556c0-.515-.321-.855-.7-.758L25.074,9.3a1.015,1.015,0,0,0-.589.985V12.9C24.485,13.358,24.75,13.708,25.072,13.676Z"/><path class="cls-5" d="M36.3,19.185a.545.545,0,0,1,.616.45v-.294c0-.369-.16-.655-.367-.635l-1.242.125c-.234.023-.417.373-.417.777v.041l.992-.145A.541.541,0,0,1,36.3,19.185Z"/><path class="cls-5" d="M36.458,20.262a.541.541,0,0,1-.492-.186l-1.076.158V21.9c0,.4.183.685.418.625l1.235-.32c.206-.052.373-.4.373-.766V19.814A.545.545,0,0,1,36.458,20.262Z"/><path class="cls-5" d="M34.5,19.707v-.053c0-.41-.207-.725-.462-.7l-1.553.154c-.293.029-.557.424-.557.876v1.626l2.466-1.889Z"/><path class="cls-5" d="M31.928,22.253v.3c0,.452.261.76.554.685l1.566-.4c.254-.065.452-.452.452-.862V20.37l-2.417,1.851Z"/><path class="cls-5" d="M28.916,23.129a.544.544,0,0,1-.642-.425q-.006-.03-.009-.06v.742c0,.514.325.854.7.757l1.985-.5a1.013,1.013,0,0,0,.587-.984v-.321l-2.223.454A.545.545,0,0,1,28.916,23.129Z"/><path class="cls-5" d="M28.7,22.062a.542.542,0,0,1,.5.158l2.339-.478v-1.7c0-.46-.268-.81-.59-.778l-1.986.2a.958.958,0,0,0-.7,1v2.079A.545.545,0,0,1,28.7,22.062Z"/><path class="cls-5" d="M36.371,15.93a.539.539,0,0,1,.54.545.55.55,0,0,1-.549.543.541.541,0,0,1-.459-.255H34.89v.855c0,.4.183.719.418.7l1.235-.1c.206-.016.373-.331.373-.7v-2.1c0-.37-.16-.685-.367-.7l-1.242-.1c-.234-.019-.417.3-.417.7v.859h1.018A.547.547,0,0,1,36.371,15.93Z"/><path class="cls-5" d="M34.5,15.307c0-.409-.207-.761-.462-.78l-1.553-.121c-.293-.023-.557.328-.557.781v.994l2.572,0Z"/><path class="cls-5" d="M31.928,17.755c0,.452.261.8.554.78l1.566-.121c.254-.02.452-.371.452-.781v-.871l-2.572,0Z"/><path class="cls-5" d="M28.8,15.923a.548.548,0,0,1,.463.255l2.277,0V15.165c0-.459-.268-.856-.59-.881l-1.986-.154c-.377-.03-.7.367-.7.881v1.368A.539.539,0,0,1,28.8,15.923Z"/><path class="cls-5" d="M28.806,17.012a.55.55,0,0,1-.541-.465V17.93c0,.514.325.911.7.881l1.985-.154c.321-.025.587-.421.587-.881V16.76l-2.274,0A.541.541,0,0,1,28.806,17.012Z"/><path class="cls-5" d="M36.453,12.616a.545.545,0,0,1,.463.451V11.5c0-.369-.16-.714-.367-.767l-1.242-.319c-.234-.06-.417.221-.417.625v1.615l1.073.149A.541.541,0,0,1,36.453,12.616Z"/><path class="cls-5" d="M36.3,13.694a.544.544,0,0,1-.421-.315l-.993-.138v.092c0,.4.183.754.418.777l1.235.125c.206.02.373-.266.373-.635v-.36A.544.544,0,0,1,36.3,13.694Z"/><path class="cls-5" d="M31.928,11.308v1.647c0,.453.261.848.554.877l1.566.154c.254.026.452-.289.452-.7v-.1l-.113-.015Z"/><path class="cls-5" d="M34.5,12.531v-1.57c0-.41-.207-.8-.462-.862l-1.553-.4c-.293-.075-.557.233-.557.685v.275l.143.028Z"/><path class="cls-5" d="M28.913,9.811a.544.544,0,0,1,.4.339l2.224.436v-.3a1.014,1.014,0,0,0-.59-.985L28.963,8.8c-.377-.1-.7.243-.7.758v.757a.59.59,0,0,1,.009-.072A.545.545,0,0,1,28.913,9.811Z"/><path class="cls-5" d="M28.7,10.88a.545.545,0,0,1-.438-.5v2.1a.962.962,0,0,0,.7,1l1.985.2c.321.032.587-.318.587-.778V11.176L29.2,10.718A.543.543,0,0,1,28.7,10.88Z"/><path class="cls-4" d="M99,15.919V11.956l.051.032a.676.676,0,0,1,.234.229.576.576,0,0,1,.08.3v3.4a.688.688,0,0,1-.2.489.7.7,0,0,1-.493.2h-.781a.7.7,0,0,1-.493-.2.687.687,0,0,1-.2-.489V11.842h.364v4.077a.327.327,0,0,0,.1.233.331.331,0,0,0,.235.1h.781a.335.335,0,0,0,.236-.1A.33.33,0,0,0,99,15.919Z"/><path class="cls-4" d="M94.915,12.305a.331.331,0,0,0-.1.235v1.428h1.811v.365H94.818v1.58a.333.333,0,0,0,.332.333h1.479v.365H95.15a.7.7,0,0,1-.7-.7V12.54a.7.7,0,0,1,.7-.7h1.479v.365H95.15A.328.328,0,0,0,94.915,12.305Z"/><path class="cls-5" d="M75.4,18.367h4.715A1.664,1.664,0,0,0,81.776,16.7V15.645a1.663,1.663,0,0,0-1.664-1.663H74.983a1.663,1.663,0,0,0-1.663,1.663v3.262a1.664,1.664,0,0,0,1.663,1.664h5.129v-.745H74.983a.919.919,0,0,1-.918-.919V15.645a.92.92,0,0,1,.918-.919h5.129a.92.92,0,0,1,.919.919V16.7a.92.92,0,0,1-.919.919H75.4Z"/><path class="cls-5" d="M58.882,18.367H63.6A1.663,1.663,0,0,0,65.26,16.7V15.645A1.662,1.662,0,0,0,63.6,13.982H58.468a1.662,1.662,0,0,0-1.663,1.663v3.262a1.663,1.663,0,0,0,1.663,1.664H63.6v-.745H58.468a.92.92,0,0,1-.919-.919V15.645a.92.92,0,0,1,.919-.919H63.6a.921.921,0,0,1,.919.919V16.7a.92.92,0,0,1-.919.919H58.882Z"/><path class="cls-5" d="M89.312,13.982H84.184a1.663,1.663,0,0,0-1.664,1.663v3.262a1.664,1.664,0,0,0,1.664,1.664h5.109v-.745H84.184a.92.92,0,0,1-.919-.919V15.645a.92.92,0,0,1,.919-.919h5.128Z"/><rect class="cls-2" x="41.664" y="13.982" width="0.745" height="6.589"/><path class="cls-5" d="M52.389,20.571V15.645a1.663,1.663,0,0,0-1.663-1.663H45.6a1.663,1.663,0,0,0-1.663,1.663v4.926h.744V15.645a.921.921,0,0,1,.919-.919h5.129a.921.921,0,0,1,.919.919v4.926Z"/><path class="cls-5" d="M56.06,14.726v-.744H53.878V11.8h-.744v7.112A1.664,1.664,0,0,0,54.8,20.571H56.06v-.745H54.8a.92.92,0,0,1-.919-.919V14.726Z"/><path class="cls-5" d="M92.983,14.726v-.744H90.8V11.8h-.745v7.112a1.664,1.664,0,0,0,1.663,1.664h1.263v-.745H91.72a.919.919,0,0,1-.918-.919V14.726Z"/><path class="cls-5" d="M68.931,19.826H67.668a.919.919,0,0,1-.918-.919V11.8h-.745v7.112a1.664,1.664,0,0,0,1.663,1.664h1.263Z"/><path class="cls-5" d="M72.6,19.826H71.339a.92.92,0,0,1-.919-.919V11.8h-.744v7.112a1.663,1.663,0,0,0,1.663,1.664H72.6Z"/><path class="cls-5" d="M42.513,12.514a.528.528,0,0,0,.038-.2.533.533,0,0,0-.039-.2.5.5,0,0,0-.109-.166.484.484,0,0,0-.166-.109.536.536,0,0,0-.4,0,.521.521,0,0,0-.163.11.484.484,0,0,0-.109.166.533.533,0,0,0-.039.2.505.505,0,0,0,.511.511.542.542,0,0,0,.2-.039.505.505,0,0,0,.165-.109A.551.551,0,0,0,42.513,12.514Z"/></svg>