<svg id="CATALYST_LOGO" xmlns="http://www.w3.org/2000/svg" viewBox="0 0 204.094 73.701"><defs><style>.cls-1{fill:#273759;}.cls-2,.cls-6{fill:#fff;}.cls-3,.cls-5{fill:#589dd5;}.cls-4{fill:none;stroke:#589dd5;stroke-miterlimit:10;stroke-width:2px;}.cls-5,.cls-6{fill-rule:evenodd;}</style></defs><title>CATALYST_BP_withBackground</title><rect id="DARK_BACKGROUND" class="cls-1" x="-1.034" y="0.136" width="205.027" height="74.017"/><g id="CATALYST_onWHITE"><path class="cls-2" d="M53.648,44.015A12.069,12.069,0,1,1,43.264,25.99a12.2,12.2,0,0,1,10.319,5.747H50.612a9.63,9.63,0,1,0-7.348,15.771,9.448,9.448,0,0,0,7.413-3.493Z"/><path class="cls-2" d="M65.435,26.251h2.58L78.5,49.566H75.917l-4.179-9.274H61.713l-4.18,9.274h-2.58Zm1.306,2.873-4.016,8.882h8Z"/><path class="cls-2" d="M83.459,28.537h-7.9V26.251H93.713v2.286h-7.87V49.566H83.459Z"/><path class="cls-2" d="M102.888,26.251h2.58l10.481,23.315H113.37l-4.179-9.274H99.166l-4.179,9.274h-2.58Zm1.307,2.873-4.017,8.882h8Z"/><path class="cls-2" d="M117.908,26.251h2.384V47.28h10.743v2.286H117.908Z"/><path class="cls-3" d="M140.221,42.744l-8.065-16.491h2.58l6.792,13.878,6.792-13.878H150.9L139.47,49.568h-2.58Z"/><path class="cls-2" d="M161.927,31.019a4.078,4.078,0,0,0-3.82-2.743,3.973,3.973,0,0,0-4.213,3.852c0,2.026,1.4,2.94,4.213,3.822,4.342,1.371,7.575,3.069,7.575,7.15s-3.363,6.76-7.575,6.76a7.311,7.311,0,0,1-7.511-6.237h2.481a4.969,4.969,0,0,0,5.03,3.853c2.841,0,5.093-1.665,5.093-4.376,0-2.155-1.4-3.33-5.093-4.474-4.344-1.337-6.695-2.97-6.695-6.5s2.678-6.236,6.695-6.236a6.315,6.315,0,0,1,6.432,5.127Z"/><path class="cls-2" d="M174.563,28.537h-7.9V26.251h18.157v2.286h-7.87V49.566h-2.384Z"/><line class="cls-4" x1="166.516" y1="23.758" x2="184.885" y2="23.758"/></g><path class="cls-5" d="M19.379,22.657l1.236.319c.234.06.418-.22.418-.624V20.06c0-.4-.184-.755-.418-.778l-1.242-.124c-.206-.021-.367.265-.367.635v2.1C19.006,22.259,19.173,22.6,19.379,22.657Z"/><path class="cls-5" d="M21.875,23.294l1.565.4c.293.075.554-.233.554-.685V20.437c0-.453-.264-.847-.557-.877l-1.553-.154c-.254-.026-.462.289-.462.7v2.326C21.422,22.841,21.62,23.229,21.875,23.294Z"/><path class="cls-5" d="M24.971,24.089l1.984.506c.378.1.7-.244.7-.758v-2.92a.958.958,0,0,0-.7-1l-1.986-.2c-.322-.032-.589.319-.589.779v2.61A1.01,1.01,0,0,0,24.971,24.089Z"/><path class="cls-5" d="M19.379,18.671l1.236.1c.234.018.418-.3.418-.7V15.776c0-.4-.184-.72-.418-.7l-1.242.1c-.206.017-.367.332-.367.7v2.1C19.006,18.34,19.173,18.655,19.379,18.671Z"/><path class="cls-6" d="M21.875,18.866l1.565.121c.293.022.554-.329.554-.781V15.638c0-.453-.264-.8-.557-.781l-1.553.121c-.254.02-.462.371-.462.781v2.326C21.422,18.5,21.62,18.846,21.875,18.866Z"/><path class="cls-5" d="M24.971,19.108l1.984.155c.378.029.7-.367.7-.882V15.462c0-.514-.32-.91-.7-.881l-1.986.154c-.322.025-.589.422-.589.882v2.61C24.384,18.687,24.649,19.083,24.971,19.108Z"/><path class="cls-5" d="M19.379,14.686l1.236-.125c.234-.023.418-.373.418-.777V11.492c0-.4-.184-.684-.418-.625l-1.242.32c-.206.053-.367.4-.367.767v2.1C19.006,14.421,19.173,14.706,19.379,14.686Z"/><path class="cls-5" d="M21.875,14.438l1.565-.155c.293-.029.554-.424.554-.876V10.839c0-.453-.264-.76-.557-.685l-1.553.4c-.254.065-.462.453-.462.863v2.326C21.422,14.148,21.62,14.463,21.875,14.438Z"/><path class="cls-5" d="M24.971,14.127l1.984-.2a.96.96,0,0,0,.7-1V10.007c0-.514-.32-.855-.7-.758l-1.986.5a1.014,1.014,0,0,0-.589.985v2.61C24.384,13.809,24.649,14.16,24.971,14.127Z"/><path class="cls-6" d="M36.2,19.636a.545.545,0,0,1,.616.45v-.293c0-.37-.161-.656-.367-.635l-1.242.124c-.235.023-.418.373-.418.778V20.1l.992-.146A.546.546,0,0,1,36.2,19.636Z"/><path class="cls-6" d="M36.357,20.713a.546.546,0,0,1-.493-.185l-1.076.158v1.666c0,.4.184.684.418.624l1.236-.319c.206-.053.373-.4.373-.767V20.265A.545.545,0,0,1,36.357,20.713Z"/><path class="cls-6" d="M34.4,20.158v-.053c0-.41-.208-.725-.463-.7l-1.552.154c-.293.03-.557.424-.557.877v1.625l2.466-1.889Z"/><path class="cls-6" d="M31.827,22.705v.3c0,.452.26.76.554.685l1.565-.4c.255-.065.453-.453.453-.863V20.822l-2.417,1.851Z"/><path class="cls-6" d="M28.814,23.58a.545.545,0,0,1-.642-.424.425.425,0,0,1-.008-.061v.742c0,.514.324.854.7.758l1.984-.506a1.01,1.01,0,0,0,.587-.984v-.321l-2.222.454A.544.544,0,0,1,28.814,23.58Z"/><path class="cls-6" d="M28.6,22.514a.542.542,0,0,1,.5.157l2.338-.478V20.5c0-.46-.268-.811-.589-.779l-1.986.2a.959.959,0,0,0-.7,1V23A.543.543,0,0,1,28.6,22.514Z"/><path class="cls-6" d="M36.269,16.381a.539.539,0,0,1,.541.545.549.549,0,0,1-.549.543.539.539,0,0,1-.459-.254H34.788v.854c0,.4.184.719.418.7l1.236-.1c.206-.016.373-.331.373-.7v-2.1c0-.369-.161-.684-.367-.7l-1.242-.1c-.235-.019-.418.3-.418.7v.859h1.018A.55.55,0,0,1,36.269,16.381Z"/><path class="cls-6" d="M34.4,15.759c0-.41-.208-.761-.463-.781l-1.552-.121c-.293-.023-.557.328-.557.781v.994l2.572,0Z"/><path class="cls-6" d="M31.827,18.206c0,.452.26.8.554.781l1.565-.121c.255-.02.453-.371.453-.781v-.872l-2.572,0Z"/><path class="cls-6" d="M28.7,16.374a.551.551,0,0,1,.463.256l2.276,0V15.617c0-.46-.268-.857-.589-.882l-1.986-.154c-.377-.029-.7.367-.7.881v1.369A.54.54,0,0,1,28.7,16.374Z"/><path class="cls-6" d="M28.705,17.463A.549.549,0,0,1,28.164,17v1.383c0,.515.324.911.7.882l1.984-.155c.322-.025.587-.421.587-.881V17.211l-2.273,0A.542.542,0,0,1,28.705,17.463Z"/><path class="cls-6" d="M36.352,13.067a.547.547,0,0,1,.463.451V11.954c0-.37-.161-.714-.367-.767l-1.242-.32c-.235-.059-.418.221-.418.625v1.616l1.073.148A.545.545,0,0,1,36.352,13.067Z"/><path class="cls-6" d="M36.2,14.146a.545.545,0,0,1-.422-.316l-.993-.138v.092c0,.4.184.754.418.777l1.236.125c.206.02.373-.265.373-.635v-.36A.546.546,0,0,1,36.2,14.146Z"/><path class="cls-6" d="M31.827,11.76v1.647c0,.452.26.847.554.876l1.565.155c.255.025.453-.29.453-.7v-.1l-.113-.015Z"/><path class="cls-6" d="M34.4,12.982V11.413c0-.41-.208-.8-.463-.863l-1.552-.4c-.293-.075-.557.232-.557.685v.275l.142.028Z"/><path class="cls-6" d="M28.811,10.263a.542.542,0,0,1,.4.338l2.223.436v-.3a1.016,1.016,0,0,0-.589-.985l-1.986-.5c-.377-.1-.7.244-.7.758v.757a.587.587,0,0,1,.008-.072A.544.544,0,0,1,28.811,10.263Z"/><path class="cls-6" d="M28.6,11.331a.544.544,0,0,1-.438-.5v2.1a.96.96,0,0,0,.7,1l1.984.2c.322.033.587-.318.587-.778V11.627L29.1,11.17A.544.544,0,0,1,28.6,11.331Z"/><path class="cls-5" d="M98.9,16.371V12.408l.052.032a.676.676,0,0,1,.234.229.574.574,0,0,1,.079.3v3.4a.686.686,0,0,1-.2.488.7.7,0,0,1-.493.2h-.782a.7.7,0,0,1-.492-.2.687.687,0,0,1-.2-.488V12.294h.365v4.077a.326.326,0,0,0,.1.232.333.333,0,0,0,.235.1h.782a.331.331,0,0,0,.235-.1A.324.324,0,0,0,98.9,16.371Z"/><path class="cls-5" d="M94.813,12.756a.335.335,0,0,0-.1.235V14.42h1.811v.365H94.716v1.579a.335.335,0,0,0,.1.235.332.332,0,0,0,.236.1h1.478v.365H95.049a.7.7,0,0,1-.7-.7V12.991a.7.7,0,0,1,.7-.7h1.478v.364H95.049A.336.336,0,0,0,94.813,12.756Z"/><path class="cls-6" d="M75.3,18.818h4.715a1.663,1.663,0,0,0,1.663-1.663V16.1a1.663,1.663,0,0,0-1.663-1.663H74.882A1.663,1.663,0,0,0,73.219,16.1v3.263a1.663,1.663,0,0,0,1.663,1.663h5.129v-.745H74.882a.919.919,0,0,1-.919-.918V16.1a.919.919,0,0,1,.919-.918h5.129a.919.919,0,0,1,.919.918v1.059a.92.92,0,0,1-.919.919H75.3Z"/><path class="cls-6" d="M58.78,18.818H63.5a1.664,1.664,0,0,0,1.664-1.663V16.1A1.664,1.664,0,0,0,63.5,14.433H58.366A1.664,1.664,0,0,0,56.7,16.1v3.263a1.664,1.664,0,0,0,1.663,1.663H63.5v-.745H58.366a.919.919,0,0,1-.918-.918V16.1a.919.919,0,0,1,.918-.918H63.5a.919.919,0,0,1,.919.918v1.059a.92.92,0,0,1-.919.919H58.78Z"/><path class="cls-6" d="M89.211,14.433H84.082A1.664,1.664,0,0,0,82.419,16.1v3.263a1.664,1.664,0,0,0,1.663,1.663h5.11v-.745h-5.11a.919.919,0,0,1-.918-.918V16.1a.919.919,0,0,1,.918-.918h5.129Z"/><rect class="cls-2" x="41.563" y="14.433" width="0.745" height="6.589"/><path class="cls-6" d="M52.288,21.022V16.1a1.664,1.664,0,0,0-1.663-1.663H45.5A1.664,1.664,0,0,0,43.832,16.1v4.926h.745V16.1a.919.919,0,0,1,.919-.918h5.129a.919.919,0,0,1,.918.918v4.926Z"/><path class="cls-6" d="M55.959,15.178v-.745H53.777V12.247h-.744v7.112A1.663,1.663,0,0,0,54.7,21.022h1.263v-.745H54.7a.919.919,0,0,1-.919-.918V15.178Z"/><path class="cls-6" d="M92.882,15.178v-.745H90.7V12.247h-.744v7.112a1.664,1.664,0,0,0,1.663,1.663h1.263v-.745H91.619a.92.92,0,0,1-.919-.918V15.178Z"/><path class="cls-6" d="M68.83,20.277H67.567a.919.919,0,0,1-.919-.918V12.247H65.9v7.112a1.664,1.664,0,0,0,1.664,1.663H68.83Z"/><path class="cls-6" d="M72.5,20.277H71.238a.919.919,0,0,1-.919-.918V12.247h-.745v7.112a1.664,1.664,0,0,0,1.664,1.663H72.5Z"/><path class="cls-6" d="M42.411,12.965a.5.5,0,0,0,.039-.2.52.52,0,0,0-.04-.205A.494.494,0,0,0,42.3,12.4a.51.51,0,0,0-.165-.109.542.542,0,0,0-.205-.039.488.488,0,0,0-.2.039.479.479,0,0,0-.163.11.471.471,0,0,0-.109.165.52.52,0,0,0-.04.205.507.507,0,0,0,.511.511.524.524,0,0,0,.205-.04.494.494,0,0,0,.166-.109A.507.507,0,0,0,42.411,12.965Z"/><path class="cls-3" d="M69.63,55.381h3.5a2.244,2.244,0,0,1,2.418,2.335,2.318,2.318,0,0,1-.837,1.787,3.023,3.023,0,0,1,1.55,2.637,2.92,2.92,0,0,1-3.131,3.049h-3.5Zm3.5,3.709a1.374,1.374,0,0,0,0-2.747h-2.5V59.09Zm0,5.137a2.088,2.088,0,1,0,0-4.175h-2.5v4.175Z"/><path class="cls-3" d="M77.781,55.381H78.7v9.808h-.919Z"/><path class="cls-3" d="M80.076,62.18a3.132,3.132,0,1,1,6.263,0,3.132,3.132,0,1,1-6.263,0Zm.962,0a2.172,2.172,0,1,0,4.34,0,2.171,2.171,0,1,0-4.34,0Z"/><path class="cls-3" d="M92.346,61.109a2.157,2.157,0,0,0-1.909-1.154,2.186,2.186,0,0,0-2.169,2.225,2.228,2.228,0,0,0,2.169,2.254,2.184,2.184,0,0,0,1.909-1.182H93.39a3.124,3.124,0,0,1-2.953,2.088,3.19,3.19,0,0,1-3.131-3.16,3.13,3.13,0,0,1,6.071-1.071Z"/><path class="cls-3" d="M94.766,65.189V55.381h.921v5.838h.206l2.253-2.2h1.291l-2.486,2.4,3.255,3.764H98.969l-2.691-3.1-.591.577v2.528Z"/><path class="cls-3" d="M105.731,61.109a2.154,2.154,0,0,0-1.908-1.154,2.186,2.186,0,0,0-2.17,2.225,2.228,2.228,0,0,0,2.17,2.254,2.182,2.182,0,0,0,1.908-1.182h1.045a3.124,3.124,0,0,1-2.953,2.088,3.19,3.19,0,0,1-3.132-3.16,3.13,3.13,0,0,1,6.071-1.071Z"/><path class="cls-3" d="M108.223,54.832h.919v5.041a2.6,2.6,0,0,1,1.978-.825c1.731,0,2.474.77,2.474,2.693v3.448h-.922V61.741c0-1.2-.548-1.786-1.552-1.786a1.813,1.813,0,0,0-1.978,2.019v3.215h-.919Z"/><path class="cls-3" d="M114.9,62.18a3.148,3.148,0,0,1,3.132-3.132,2.962,2.962,0,0,1,2.279,1.085v-.988h.92v6.072h-.92v-.99a2.94,2.94,0,0,1-2.279,1.113A3.19,3.19,0,0,1,114.9,62.18Zm5.358,0a2.276,2.276,0,0,0-2.255-2.225,2.164,2.164,0,0,0-2.141,2.225,2.205,2.205,0,0,0,2.141,2.254A2.32,2.32,0,0,0,120.26,62.18Z"/><path class="cls-3" d="M123.025,57.263a.653.653,0,0,1,.657-.632.646.646,0,1,1,0,1.291A.65.65,0,0,1,123.025,57.263Zm.192,1.882h.96v6.044h-.96Z"/><path class="cls-3" d="M126.116,59.145h.922v.728a2.594,2.594,0,0,1,1.977-.825c1.729,0,2.472.77,2.472,2.693v3.448h-.92V61.741c0-1.2-.55-1.786-1.552-1.786a1.787,1.787,0,0,0-1.977,2.019v3.215h-.922Z"/><path class="cls-3" d="M140.75,55.381a3.051,3.051,0,1,1,0,6.1h-2.21v3.709h-1V55.381Zm0,5.137a2.088,2.088,0,1,0,0-4.175h-2.21v4.175Z"/><path class="cls-3" d="M145.19,55.381h.922v9.808h-.922Z"/><path class="cls-3" d="M147.487,62.18a3.148,3.148,0,0,1,3.132-3.132,2.962,2.962,0,0,1,2.279,1.085v-.988h.92v6.072h-.92v-.99a2.94,2.94,0,0,1-2.279,1.113A3.19,3.19,0,0,1,147.487,62.18Zm5.358,0a2.276,2.276,0,0,0-2.255-2.225,2.164,2.164,0,0,0-2.141,2.225,2.205,2.205,0,0,0,2.141,2.254A2.32,2.32,0,0,0,152.845,62.18Z"/><path class="cls-3" d="M157.023,59.982v5.207H156.1V59.982H155.2v-.837h.908V56.769h.919v2.376h1.36v.837Z"/><path class="cls-3" d="M160.021,65.189V59.982h-.812v-.837h.812V58.32c0-1.483.04-3.241,2.21-2.939v.852c-1.414-.179-1.291,1.2-1.291,2.087v.825h1.224v.837H160.94v5.207Z"/><path class="cls-3" d="M163.128,62.18a3.132,3.132,0,1,1,6.263,0,3.132,3.132,0,1,1-6.263,0Zm.962,0a2.171,2.171,0,1,0,4.339,0,2.17,2.17,0,1,0-4.339,0Z"/><path class="cls-3" d="M171.758,59.969a2.683,2.683,0,0,1,2.044-.921v.907a1.891,1.891,0,0,0-2.044,1.9v3.338h-.922V59.145h.922Z"/><path class="cls-3" d="M184.052,61.741v3.448h-.92V61.741c0-1.2-.454-1.786-1.346-1.786-1.112,0-1.812.619-1.812,2.089v3.145h-.922V61.741c0-1.2-.452-1.786-1.346-1.786-1.112,0-1.812.619-1.812,2.089v3.145h-.922V59.145h.922v.728a2.289,2.289,0,0,1,1.812-.825,1.886,1.886,0,0,1,2.033,1.168,2.266,2.266,0,0,1,2.047-1.168C183.351,59.048,184.052,59.818,184.052,61.741Z"/></svg>